<svg version="1.1" class="hidden" xmlns="http://www.w3.org/2000/svg" xmlns:xlink="http://www.w3.org/1999/xlink">

  <symbol viewBox="0 0 23 17" id="ic-arrow">
    <path fill="currentColor" d="M1.955 8h20.511c.295 0 .534.23.534.514a.527.527 0 0 1-.536.515H1.978l7.097 7.097c.201.2.201.524 0 .724-.2.2-.525.2-.726 0L.726 9.227 0 8.503l.726-.73L8.35.151c.201-.201.526-.201.726 0 .201.199.201.523 0 .728L1.955 8z"/>
  </symbol>

  <symbol viewBox="0 0 15 15" id="ic-cog">
    <path fill="currentColor" fill-rule="evenodd" d="M14.5653,6.33138 L13.332,5.97804 C13.2360756,5.94995626 13.1610637,5.87494436 13.13298,5.77902 C13.0231269,5.41667705 12.8784521,5.06582042 12.70098,4.73136 C12.653505,4.64393772 12.6538216,4.538356 12.70182,4.45122 L13.32102,3.336 C13.4509421,3.10185674 13.4099846,2.8099647 13.22064,2.62062 L12.3795,1.7793 C12.1901354,1.58989723 11.8981724,1.54893672 11.664,1.67892 L10.54836,2.298 C10.4611217,2.3460372 10.3554027,2.34624081 10.26798,2.29854 C9.93366902,2.12101634 9.58292671,1.9763389 9.22068,1.86654 C9.12486801,1.8383374 9.04998914,1.76332288 9.02196,1.66746 L8.66868,0.4347 C8.5949265,0.17735221 8.35960779,2.8683961e-07 8.0919,0 L6.9081,0 C6.64039221,2.8683961e-07 6.4050735,0.17735221 6.33132,0.4347 L5.97804,1.66758 C5.94992417,1.76349797 5.87492949,1.83851526 5.77902,1.86666 C5.41684244,1.9764368 5.06617766,2.1211154 4.73196,2.29866 C4.64449423,2.34629673 4.53878113,2.34607056 4.45152,2.29806 L3.336,1.67892 C3.1018438,1.54901328 2.80995022,1.5899954 2.62062,1.77936 L1.77936,2.62044 C1.58992816,2.80981454 1.5489661,3.10181306 1.67898,3.336 L2.298,4.4517 C2.34602117,4.53899598 2.34617954,4.64476061 2.29842,4.7322 C2.12082584,5.06637347 1.97614512,5.41702326 1.86642,5.7792 C1.83825013,5.87506931 1.76323476,5.95001687 1.66734,5.9781 L0.43458,6.33132 C0.17727978,6.4051178 -1.50616962e-05,6.64042572 0,6.9081 L0,8.09172 C2.8683961e-07,8.35942779 0.17735221,8.5947465 0.4347,8.6685 L1.66776,9.02184 C1.76372196,9.04991757 1.83876243,9.12495804 1.86684,9.22092 C1.97669076,9.58322525 2.12136586,9.93404227 2.29884,10.26846 C2.34631129,10.3558777 2.34601735,10.461448 2.29806,10.5486 L1.67898,11.664 C1.54910388,11.8981416 1.59008446,12.1899997 1.77942,12.37932 L2.6205,13.22046 C2.80983022,13.4098246 3.1017238,13.4508067 3.33588,13.3209 L4.45152,12.702 C4.53879137,12.6540082 4.64450446,12.6538046 4.73196,12.70146 C5.06615687,12.8790044 5.41680173,13.0236831 5.77896,13.13346 C5.87485774,13.1616245 5.94984436,13.2366338 5.97798,13.33254 L6.33144,14.56554 C6.40527595,14.8227713 6.64054147,15.0000037 6.90816,15 L8.09178,15 C8.35948779,14.9999997 8.5948065,14.8226478 8.66856,14.5653 L9.02184,13.33254 C9.04992313,13.2366452 9.12487069,13.1616299 9.22074,13.13346 C9.58299001,13.0236703 9.9337332,12.8789925 10.26804,12.70146 C10.3554872,12.653834 10.4611774,12.6540601 10.54842,12.70206 L11.664,13.32102 C11.8981433,13.4509421 12.1900353,13.4099846 12.37938,13.22064 L13.22052,12.3795 C13.4098356,12.1901652 13.4507915,11.8983087 13.3209,11.66418 L12.702,10.54842 C12.6540189,10.4611672 12.6538153,10.355477 12.70146,10.26804 C12.8789705,9.93370196 13.0236473,9.58294105 13.13346,9.22068 C13.1616398,9.12481657 13.2366511,9.04987304 13.33254,9.02178 L14.5653,8.6685 C14.8226264,8.59475263 14.9999729,8.35946555 15,8.09178 L15,6.90816 C14.9999997,6.64045221 14.8226478,6.4051335 14.5653,6.33138 Z M7.5,10.2 C6.00883118,10.2 4.8,8.99116882 4.8,7.5 C4.8,6.00883118 6.00883118,4.8 7.5,4.8 C8.99116882,4.8 10.2,6.00883118 10.2,7.5 C10.2,8.21608452 9.91553653,8.90284009 9.40918831,9.40918831 C8.90284009,9.91553653 8.21608452,10.2 7.5,10.2 Z"/>
  </symbol>

  <symbol viewBox="0 0 9 9" id="ic-cross" >
    <path fill="currentColor" d="M7.534 8.724L4.5 5.691 1.465 8.724c-.35.352-.901.369-1.23.041-.328-.329-.31-.88.04-1.23L3.31 4.5.275 1.466C-.076 1.114-.092.563.235.236c.33-.329.88-.312 1.23.038L4.5 3.31 7.534.274c.35-.35.902-.367 1.23-.038.329.328.312.879-.04 1.23L5.69 4.5l3.035 3.035c.35.35.368.9.039 1.23-.327.327-.88.31-1.23-.04z"/>
  </symbol>

  <symbol viewBox="0 0 10 10" id="ic-cross-mini">
    <path fill="currentColor" d="M5 4.065l-1.87-1.87a.66.66 0 1 0-.935.936L4.065 5l-1.87 1.87a.66.66 0 1 0 .936.935L5 5.935l1.87 1.87a.66.66 0 1 0 .935-.936L5.935 5l1.87-1.87a.66.66 0 1 0-.936-.935L5 4.065z"/>
  </symbol>

  <symbol viewBox="0 0 16 16" id="ic-plus">
    <path fill="currentColor" transform="rotate(-45 8 8)" d="M9.534 10.724L6.5 7.691l-3.035 3.033c-.35.352-.901.369-1.23.041-.328-.329-.31-.88.04-1.23L5.31 6.5 2.275 3.466c-.351-.352-.367-.903-.04-1.23.33-.329.88-.312 1.23.038L6.5 5.31l3.034-3.035c.35-.35.902-.367 1.23-.038.329.328.312.879-.04 1.23L7.69 6.5l3.035 3.035c.35.35.368.9.039 1.23-.327.327-.88.31-1.23-.04z"/>
  </symbol>

  <symbol viewBox="0 0 13 13" id="ic-pencil">
    <path fill="currentColor" fill-rule="nonzero" d="M7.645 2.382l2.973 2.973-6.837 6.838a1.051 1.051 0 0 1-.537.287l-2.389.504a.714.714 0 0 1-.841-.841L.52 9.756c.04-.203.14-.39.287-.537l6.838-6.837zM11.629.419l.952.952a1.43 1.43 0 0 1 0 2.021l-1.22 1.22-2.973-2.974 1.22-1.22a1.43 1.43 0 0 1 2.021 0zM7.645 2.382l2.973 2.973-6.837 6.838a1.051 1.051 0 0 1-.537.287l-2.389.504a.714.714 0 0 1-.841-.841L.52 9.756c.04-.203.14-.39.287-.537l6.838-6.837zM11.629.419l.952.952a1.43 1.43 0 0 1 0 2.021l-1.22 1.22-2.973-2.974 1.22-1.22a1.43 1.43 0 0 1 2.021 0z"/>
  </symbol>

  <symbol viewBox="0 0 6 11" id="ic-chevron">
    <path fill="currentColor" fill-rule="nonzero" d="M5.826 5.908l-4.814 4.933a.631.631 0 0 1-.84-.002.517.517 0 0 1 .004-.773l4.431-4.555L.202.931A.52.52 0 0 1 .03.522.526.526 0 0 1 .204.158a.633.633 0 0 1 .84.003l4.784 4.962c.118.109.174.25.171.391a.526.526 0 0 1-.173.394z"/>
  </symbol>

  <symbol viewBox="0 0 15 15" id="ic-chevron-down">
    <path fill="currentColor" fill-rule="nonzero" transform="translate(10 5) rotate(90)" d="M8.327 3.408c-.004.003-1.61 1.647-4.815 4.932a.631.631 0 0 1-.84 0 .517.517 0 0 1 .004-.774l4.432-4.555L2.702-1.57a.52.52 0 0 1-.172-.407.526.526 0 0 1 .175-.365.633.633 0 0 1 .84.002l4.783 4.963c.119.108.174.25.172.391a.526.526 0 0 1-.173.394z"/>
  </symbol>

  <symbol viewBox="0 0 13 13" id="ic-dot-rounded">
    <rect width="12" height="12" x=".5" y=".5" fill="#FFF" stroke="currentColor" rx="6"/>
    <circle cx="6.5" cy="6.5" r="2.5" fill="currentColor" opacity=".6"/>
  </symbol>

  <symbol viewBox="0 0 10 10" id="ic-dot">
    <g fill="none" fill-rule="evenodd" transform="translate(2 2)">
      <circle fill="currentColor" cx="3" cy="3" r="3"/>
    </g>
  </symbol>

  <symbol viewBox="0 0 4 14" id="ic-three-dots">
    <path fill="currentColor" fill-rule="evenodd" d="M2 4a2 2 0 1 1 0-4 2 2 0 0 1 0 4zm0 5a2 2 0 1 1 0-4 2 2 0 0 1 0 4zm0 5a2 2 0 1 1 0-4 2 2 0 0 1 0 4z"/>
  </symbol>

    <symbol viewBox="0 0 10 10" id="ic-three-dots-sm">
    <path fill="currentColor" fill-rule="evenodd" d="M5 2a1 1 0 1 1 0-2 1 1 0 0 1 0 2zm0 4a1 1 0 1 1 0-2 1 1 0 0 1 0 2zm0 4a1 1 0 1 1 0-2 1 1 0 0 1 0 2z"/>
  </symbol>

  <symbol viewBox="0 0 15 15" id="ic-info-rounded">
    <g fill="none" fill-rule="evenodd">
      <path d="M-24-16h500v48H-24z"/>
      <path fill="currentColor" d="M7.5 16a7.5 7.5 0 1 1 0-15 7.5 7.5 0 0 1 0 15zm-2-8.5A.5.5 0 0 0 6 8h.5v4H6a.5.5 0 1 0 0 1h3.5a.5.5 0 1 0 0-1H9V7.5a.5.5 0 0 0-.5-.5H6a.5.5 0 0 0-.5.5zm2-1.5a1.5 1.5 0 1 0 0-3 1.5 1.5 0 0 0 0 3z"/>
    </g>
  </symbol>

  <symbol viewBox="0 0 13 13" id="ic-cross-rounded-opposite">
    <g>
      <rect fill="#FFF" id="a" width="13" height="13" rx="6.5"/>
      <rect fill="#FFF" width="12" height="12" x=".5" y=".5" stroke="currentColor" rx="6"/>
    </g>
    <path fill="currentColor" fill-rule="nonzero" d="M6.5 5.44L4.38 3.32a.75.75 0 1 0-1.06 1.06L5.44 6.5 3.32 8.62a.75.75 0 1 0 1.06 1.06L6.5 7.56l2.12 2.12a.75.75 0 1 0 1.06-1.06L7.56 6.5l2.12-2.12a.75.75 0 1 0-1.06-1.06L6.5 5.44z"/>
  </symbol>

  <symbol viewBox="0 0 13 13" id="ic-cross-rounded">
    <rect width="13" height="13" fill="currentColor" rx="6.5"/>
    <path fill="#FFF" id="b" d="M6.5 5.44L4.38 3.32a.75.75 0 1 0-1.06 1.06L5.44 6.5 3.32 8.62a.75.75 0 1 0 1.06 1.06L6.5 7.56l2.12 2.12a.75.75 0 1 0 1.06-1.06L7.56 6.5l2.12-2.12a.75.75 0 1 0-1.06-1.06L6.5 5.44z"/>
  </symbol>

  <symbol viewBox="0 0 13 13" id="ic-tick-rounded">
    <rect width="13" height="13" fill="currentColor" rx="6.5"/>
    <g fill-rule="nonzero">
      <path id="b" fill="#FFFFFF" d="M4.328 6.587a.772.772 0 0 0-1.1 0 .791.791 0 0 0 0 1.111L4.783 9.27a.772.772 0 0 0 1.1 0l3.89-3.929a.791.791 0 0 0 0-1.11.772.772 0 0 0-1.1 0l-3.34 3.372-1.005-1.016z"/>
      <path id="b" fill="#FFFFFF" d="M4.328 6.587a.772.772 0 0 0-1.1 0 .791.791 0 0 0 0 1.111L4.783 9.27a.772.772 0 0 0 1.1 0l3.89-3.929a.791.791 0 0 0 0-1.11.772.772 0 0 0-1.1 0l-3.34 3.372-1.005-1.016z"/>
    </g>
  </symbol>

  <symbol viewBox="0 0 15 15" id="ic-tick">
    <path fill="currentColor" fill-rule="evenodd" d="M4.406 12.655a.973.973 0 0 0 1.482.006l7.828-8.8a1.16 1.16 0 0 0-.031-1.556.972.972 0 0 0-1.445.034l-6.99 8.042L2.765 7.58a.972.972 0 0 0-1.445-.045A1.16 1.16 0 0 0 1.28 9.09l3.127 3.565z"/>
  </symbol>

  <symbol viewBox="0 0 10 10" id="ic-tick-mini">
    <g fill="none" fill-rule="evenodd" transform="translate(2 2)">
      <path fill="currentColor" d="M1.328 2.587a.772.772 0 0 0-1.1 0 .791.791 0 0 0 0 1.111L1.783 5.27a.772.772 0 0 0 1.1 0l3.89-3.929a.791.791 0 0 0 0-1.11.772.772 0 0 0-1.1 0l-3.34 3.372-1.005-1.016z"/>
    </g>
  </symbol>

  <symbol viewBox="0 0 15 15" id="ic-person-rounded">
    <path fill="currentColor" d="M7.5 15a7.5 7.5 0 1 0 0-15 7.5 7.5 0 0 0 0 15zm0-1.406a6.18 6.18 0 0 1-4.219-1.647c.035-.909-.056-3.51 4.219-3.51s4.184 2.601 4.219 3.51A6.18 6.18 0 0 1 7.5 13.594m0-10.781a2.344 2.344 0 1 1 0 4.687 2.344 2.344 0 0 1 0-4.688"/>
  </symbol>

  <symbol viewBox="0 0 13 13" id="ic-person">
    <path fill="currentColor" d="M4.80000075,4.8 C4.80000075,2.8935 5.78400075,1.8 7.50000075,1.8 C9.21600075,1.8 10.2000008,2.8935 10.2000008,4.8 C10.2000008,6.99816 8.91312075,9 7.50000075,9 C6.08688075,9 4.80000075,6.99816 4.80000075,4.8 Z M12.7663808,10.5363 C11.9974808,10.07238 10.3861808,9.11688 9.41496075,8.65776 C8.93767289,9.22731932 8.24247254,9.56938682 7.50000075,9.6 C6.7552637,9.56906639 6.05821355,9.22509534 5.58060075,8.65284 C4.60398075,9.11004 2.99646075,10.0701 2.23092075,10.53576 C1.96295566,10.6989951 1.79959589,10.9902313 1.80000075,11.304 L1.80000075,11.84088 C1.79959354,12.2819588 2.119309,12.6581544 2.55468075,12.72888 C4.18958466,13.0051084 5.84234844,13.1625603 7.50000075,13.2 C9.15765306,13.1625603 10.8104168,13.0051084 12.4453208,12.72888 C12.8807374,12.6581472 13.2004669,12.2818842 13.2000008,11.84076 L13.2000008,11.3061 C13.2004034,10.9912277 13.0358749,10.6991424 12.7663808,10.5363 Z" transform="translate(-1 -1)"/>
  </symbol>

  <symbol viewBox="0 0 16 14" id="ic-person_created">
    <path fill="currentColor" d="M2.56 4.12a3.2 3.2 0 1 1 6.4 0 3.2 3.2 0 0 1-6.4 0zm3.2 3.84a5.12 5.12 0 0 0-5.12 5.12v.32c0 .177.143.32.32.32h9.6a.32.32 0 0 0 .32-.32v-.32a5.12 5.12 0 0 0-5.12-5.12zm9.28-3.2h-1.6v-1.6a.32.32 0 0 0-.64 0v1.6h-1.6a.32.32 0 0 0 0 .64h1.6V7a.32.32 0 0 0 .64 0V5.4h1.6a.32.32 0 0 0 0-.64z"/>
  </symbol>

  <symbol viewBox="0 0 16 14" id="ic-person_rejected">
    <path fill="currentColor" d="M2.56 4.12a3.2 3.2 0 1 1 6.4 0 3.2 3.2 0 0 1-6.4 0zm3.2 3.84a5.12 5.12 0 0 0-5.12 5.12v.32c0 .177.143.32.32.32h9.6a.32.32 0 0 0 .32-.32v-.32a5.12 5.12 0 0 0-5.12-5.12zM16 5.08a2.88 2.88 0 1 1-5.76 0 2.88 2.88 0 0 1 5.76 0zm-1.545 1.788l-3.123-3.123a2.22 2.22 0 0 0-.452 1.335 2.243 2.243 0 0 0 2.24 2.24 2.22 2.22 0 0 0 1.335-.452zm.905-1.788a2.243 2.243 0 0 0-2.24-2.24 2.22 2.22 0 0 0-1.335.452l3.123 3.123a2.22 2.22 0 0 0 .452-1.335z"/>
  </symbol>

  <symbol viewBox="0 0 14 14" id="ic-person_info">
    <path fill="currentColor" d="M2.84 4.12a3.2 3.2 0 1 1 6.4 0 3.2 3.2 0 0 1-6.4 0zm3.2 3.84a5.12 5.12 0 0 0-5.12 5.12v.32c0 .177.143.32.32.32h9.6a.32.32 0 0 0 .32-.32v-.32a5.12 5.12 0 0 0-5.12-5.12zm6.4 0h.64V4.12h-.64v3.84zm0-5.76v1.28h.64V2.2h-.64z"/>
  </symbol>

  <symbol viewBox="0 0 15 15" id="ic-group">
    <path fill="currentColor" d="M5.875 2.24c0-.928.728-1.68 1.625-1.68s1.625.752 1.625 1.68c0 .928-.728 1.68-1.625 1.68s-1.625-.752-1.625-1.68zm5.417 1.12c.897 0 1.625-.752 1.625-1.68 0-.928-.728-1.68-1.625-1.68-.898 0-1.625.752-1.625 1.68 0 .928.727 1.68 1.625 1.68zm-7.584 0c.898 0 1.625-.752 1.625-1.68C5.333.752 4.606 0 3.708 0c-.897 0-1.625.752-1.625 1.68 0 .928.728 1.68 1.625 1.68zm.542 5.88V7.28c0-1.034.462-2.01 1.251-2.644a2.629 2.629 0 0 0-2.906-.472C1.62 4.614.995 5.617 1 6.72v1.4c0 .464.364.84.813.84h.27v2.52c0 .464.364.84.813.84H4.52a.827.827 0 0 0 .812-.84v-.868c-.63-.134-1.082-.707-1.083-1.372zm7.042-5.32a2.638 2.638 0 0 0-1.793.716A3.395 3.395 0 0 1 10.75 7.28v1.96c-.001.665-.453 1.238-1.083 1.372v.868c0 .464.363.84.812.84h1.625a.827.827 0 0 0 .813-.84V8.96h.27A.827.827 0 0 0 14 8.12v-1.4c0-1.546-1.213-2.8-2.708-2.8zm-1.084 5.32V7.28c0-1.546-1.212-2.8-2.708-2.8-1.496 0-2.708 1.254-2.708 2.8v1.96c0 .464.363.84.812.84h.271v3.08c0 .464.364.84.813.84h1.625a.827.827 0 0 0 .812-.84v-3.08h.27a.827.827 0 0 0 .813-.84z"/>
  </symbol>

  <symbol viewBox="0 0 7 12" id="ic-download">
    <path fill="currentColor" fill-rule="nonzero" d="M3 7.793V.5a.5.5 0 1 1 1 0v7.293l1.646-1.647a.5.5 0 0 1 .708.708l-2.5 2.5a.5.5 0 0 1-.708 0l-2.5-2.5a.5.5 0 0 1 .708-.708L3 7.793zM6.501 11h.001A.499.499 0 1 1 6.5 12h-6a.5.5 0 0 1 0-1l6.001.001z"/>
  </symbol>

  <symbol viewBox="0 0 15 15" id="ic-validity">
    <path fill="currentColor" d="M9.054.161a1 1 0 1 1-.413 1.957A5.5 5.5 0 1 0 13 7.5a1 1 0 0 1 2 0 7.501 7.501 0 0 1-15 0A7.5 7.5 0 0 1 9.054.161zM5.897 6.605l1.436 1.451 4.77-5.727a1.103 1.103 0 0 1 1.572 0 1.13 1.13 0 0 1 0 1.587l-5.556 6.521a1.103 1.103 0 0 1-1.571 0L4.325 8.193a1.13 1.13 0 0 1 0-1.588 1.103 1.103 0 0 1 1.572 0z"/>
  </symbol>

  <symbol viewBox="0 0 15 15" id="ic-chat">
    <path fill="currentColor" d="M6.563 13.167c-.52.252-1.29.684-2.313 1.297a.938.938 0 0 1-1.42-.815c.018-1.556.01-2.344-.023-2.364C1.685 10.605 0 8.858 0 6.562 0 2.652 3.372 0 7.5 0S15 2.97 15 6.672c0 3.703-3.325 6.495-7.5 6.495-.388 0-.89-.023-.937 0z"/>
  </symbol>

  <symbol viewBox="0 0 15 15" id="ic-clock">
    <path fill="currentColor" fill-rule="nonzero" d="M7.5 14a6.5 6.5 0 1 0 0-13 6.5 6.5 0 0 0 0 13zm0 1a7.5 7.5 0 1 1 0-15 7.5 7.5 0 0 1 0 15zM7 2h1v6H7V2zm6 5H8v1h5V7zM3 7H2v1h1V7zm5 5H7v1h1v-1z"/>
  </symbol>

  <symbol viewBox="0 0 25 25" id="ic-clock-filled">
    <path fill="currentColor" fill-rule="nonzero" d="M12.5 0C5.596 0 0 5.596 0 12.5S5.596 25 12.5 25 25 19.404 25 12.5A12.5 12.5 0 0 0 12.5 0zm4.353 16.853a.5.5 0 0 1-.707 0l-4-4-.004-.005a.497.497 0 0 1-.142-.346V6.5a.5.5 0 1 1 1 0v5.793l3.853 3.853a.5.5 0 0 1 0 .707z"/>
  </symbol>

  <symbol viewBox="0 0 15 15" id="ic-clock-dark">
    <path fill="currentColor" d="M8 13.625a5.625 5.625 0 1 0 0-11.25 5.625 5.625 0 0 0 0 11.25zM8 15.5a7.5 7.5 0 1 1 0-15 7.5 7.5 0 0 1 0 15zM8 3.312c.518 0 .938.42.938.938v2.813H7.062V4.25c0-.518.42-.938.938-.938zm0 7.5a.937.937 0 1 1 0 1.875.937.937 0 1 1 0-1.875zm-3.75-3.75a.938.938 0 1 1 0 1.875.938.938 0 0 1 0-1.875zm7.5 0H7.062v.875a1 1 0 0 0 1 1h3.688a.937.937 0 0 0 0-1.875z"/>
  </symbol>

  <symbol viewBox="0 0 15 15" id="ic-ranking-a">
    <path fill="currentColor" d="M13.125 15H1.875A1.875 1.875 0 0 1 0 13.125V1.875C0 .839.84 0 1.875 0h11.25C14.16 0 15 .84 15 1.875v11.25C15 14.161 14.16 15 13.125 15zM14 1.929A.929.929 0 0 0 13.071 1H1.93A.928.928 0 0 0 1 1.929V13.07c0 .514.415.929.929.929H13.07a.929.929 0 0 0 .929-.929V1.93zm-2 10.025h-1.785l-.658-1.732H5.449l-.658 1.732H3.006L6.523 3h1.96L12 11.954zM9.114 8.839L7.503 4.571 5.892 8.839h3.222z"/>
  </symbol>

  <symbol viewBox="0 0 15 15" id="ic-ranking-b">
    <path fill="currentColor" d="M13.125 15H1.875A1.875 1.875 0 0 1 0 13.125V1.875C0 .839.84 0 1.875 0h11.25C14.16 0 15 .84 15 1.875v11.25C15 14.161 14.16 15 13.125 15zM14 1.929A.929.929 0 0 0 13.071 1H1.93A.928.928 0 0 0 1 1.929V13.07c0 .514.415.929.929.929H13.07a.929.929 0 0 0 .929-.929V1.93zM8.531 12H4V3.032h4.41c1.654 0 2.555 1.022 2.555 2.286 0 1.116-.726 1.882-1.56 2.057.968.148 1.735 1.102 1.735 2.191 0 1.399-.915 2.434-2.609 2.434zm-.43-5.27c.793 0 1.25-.471 1.25-1.157 0-.659-.457-1.156-1.25-1.156H5.573v2.312h2.528zm.067 3.885c.847 0 1.358-.47 1.358-1.25 0-.673-.47-1.25-1.358-1.25H5.573v2.5h2.595z"/>
  </symbol>

  <symbol viewBox="0 0 15 15" id="ic-ranking-c">
    <path fill="currentColor" d="M13.125 15H1.875A1.875 1.875 0 0 1 0 13.125V1.875C0 .839.84 0 1.875 0h11.25C14.16 0 15 .84 15 1.875v11.25C15 14.161 14.16 15 13.125 15zM14 1.929A.929.929 0 0 0 13.071 1H1.93A.928.928 0 0 0 1 1.929V13.07c0 .514.415.929.929.929H13.07a.929.929 0 0 0 .929-.929V1.93zM7.53 11.932c1.735 0 2.81-.92 3.47-1.955L9.706 9.33c-.415.712-1.256 1.256-2.175 1.256-1.709 0-2.978-1.32-2.978-3.12 0-1.825 1.269-3.12 2.978-3.12.919 0 1.76.531 2.175 1.256l1.281-.673C10.353 3.893 9.265 3 7.531 3 4.98 3 3 4.8 3 7.466c0 2.654 1.98 4.466 4.53 4.466z"/>
  </symbol>

  <symbol viewBox="0 0 15 15" id="ic-ranking-d">
    <path fill="currentColor" d="M13.125 15H1.875A1.875 1.875 0 0 1 0 13.125V1.875C0 .839.84 0 1.875 0h11.25C14.16 0 15 .84 15 1.875v11.25C15 14.161 14.16 15 13.125 15zM14 1.929A.929.929 0 0 0 13.071 1H1.93A.928.928 0 0 0 1 1.929V13.07c0 .514.415.929.929.929H13.07a.929.929 0 0 0 .929-.929V1.93zm-6.663 10.01H4V3h3.323C10.124 3 12 4.85 12 7.462c0 2.64-1.876 4.476-4.663 4.476zm-.014-1.38c1.944 0 3.07-1.395 3.07-3.097 0-1.715-1.073-3.082-3.056-3.082h-1.77v6.178h1.756z"/>
  </symbol>

  <symbol viewBox="0 0 15 15" id="ic-open-browse">
    <path fill="currentColor" fill-rule="nonzero" d="M13 11v1c0 .592-.408 1-1 1H3c-.592 0-1-.408-1-1V3c0-.592.408-1 1-1h1c.592 0 1-.408 1-1 0-.592-.408-1-1-1H3C1.225 0 0 1.225 0 3v9c0 1.775 1.225 3 3 3h9c1.775 0 3-1.225 3-3v-1c0-.592-.408-1-1-1-.592 0-1 .408-1 1zm0-4c0 .592.408 1 1 1 .592 0 1-.408 1-1V1c0-.592-.408-1-1-1H8c-.592 0-1 .408-1 1 0 .592.408 1 1 1h5v5zm.171-6.686L6.742 6.742a1.071 1.071 0 0 0 1.516 1.516l6.428-6.429A1.071 1.071 0 1 0 13.171.314z"/>
  </symbol>

  <symbol viewBox="0 0 15 15" id="ic-world">
    <path fill="currentColor" d="M6.618 13.168v-.138a.441.441 0 0 0-.197-.367l-.465-.31a1.486 1.486 0 0 1-.662-1.237v-.68c0-.467-.186-.916-.517-1.247L3.325 7.736A5.325 5.325 0 0 1 2.053 5.7a5.737 5.737 0 0 0 4.565 7.469zm3.11-10.955a1.361 1.361 0 0 1-1.36 1.316H7.5a.882.882 0 0 0-.882.883v.44a.882.882 0 0 1-.883.883h-.44a.882.882 0 1 0 0 1.765h3.292c.895 0 1.654.658 1.78 1.544l.167 1.165a.441.441 0 0 0 .437.38h.279c.339 0 .618.254.657.582a5.737 5.737 0 0 0-2.18-8.957zM7.5 15a7.5 7.5 0 1 1 0-15 7.5 7.5 0 0 1 0 15z"/>
  </symbol>

  <symbol viewBox="0 0 15 15" id="ic-attached">
    <path fill="currentColor" d="M1.589 11.867a3.761 3.761 0 0 1 0-5.467L7.012 1.18a3.003 3.003 0 0 1 4.132 0 2.736 2.736 0 0 1 0 3.976l-4.39 4.225a1.878 1.878 0 0 1-2.583 0 1.711 1.711 0 0 1 0-2.485l3.357-3.23a.75.75 0 0 1 1.033 0 .684.684 0 0 1 0 .993L5.158 7.935c-.284.274.232.77.516.497l4.437-4.269a1.372 1.372 0 0 0 0-1.988 1.506 1.506 0 0 0-2.066 0L2.622 7.394a2.397 2.397 0 0 0 0 3.479c.996.959 2.618.959 3.615 0l4.39-4.225a.75.75 0 0 1 1.033 0 .684.684 0 0 1 0 .994l-4.39 4.225c-1.57 1.51-4.111 1.51-5.681 0z"/>
  </symbol>

  <symbol viewBox="0 0 15 15" id="ic-mail">
    <path fill="currentColor" d="M1.25 0h12.5C14.44 0 15 .56 15 1.25v8.5c0 .69-.56 1.25-1.25 1.25H1.25C.56 11 0 10.44 0 9.75v-8.5C0 .56.56 0 1.25 0zm5.835 7.217c.237.21.593.21.83 0l5.625-5a.625.625 0 0 0-.83-.934S7.639 6.037 7.5 5.914L2.29 1.283a.625.625 0 1 0-.83.934l5.625 5zm4.295-.303a.625.625 0 0 0-.83.934l2.16 1.851a.625.625 0 1 0 .83-.934l-2.16-1.851zm-9.92 1.85a.625.625 0 0 0 .83.935l2.167-1.857a.625.625 0 1 0-.83-.934L1.46 8.765z"/>
  </symbol>


  <symbol viewBox="0 0 15 15" id="ic-document">
    <path fill="currentColor" fill-rule="evenodd" d="M10 2c.66 0 1 .317 1 1v10c0 .687-.344 1-1 1H1c-.66 0-1-.317-1-1V3c0-.687.344-1 1-1h1c0-1 .988-1 1-1 0 0 0-1 1-1h3c1 0 1 1 1 1s1 .015 1 1h1zM8 3V2H7V1H4v1H3v1h5zm-5.5 8h3a.5.5 0 1 1 0 1h-3a.5.5 0 1 1 0-1zm0-3h6a.5.5 0 1 1 0 1h-6a.5.5 0 0 1 0-1zm-.046-3H8.5a.5.5 0 1 1 0 1h-6c-.28 0-.51-.22-.523-.5a.478.478 0 0 1 .477-.5z"/>
  </symbol>

  <symbol viewBox="0 0 15 15" id="ic-availability">
    <path fill="currentColor" fill-rule="nonzero" d="M13.125 15H1.875A1.875 1.875 0 0 1 0 13.125V1.875C0 .839.84 0 1.875 0h11.25C14.16 0 15 .84 15 1.875v11.25C15 14.161 14.16 15 13.125 15zM14 1.929A.929.929 0 0 0 13.071 1H1.93A.928.928 0 0 0 1 1.929V13.07c0 .514.415.929.929.929H13.07a.929.929 0 0 0 .929-.929V1.93zM11.437 11H3.564C3.252 11 3 10.776 3 10.5s.252-.5.563-.5h7.874c.311 0 .563.223.563.5s-.252.5-.563.5zm0-3.001H3.564C3.252 7.999 3 7.776 3 7.5c0-.277.252-.5.563-.5h7.874c.311 0 .563.223.563.5 0 .276-.252.499-.563.499zm0-2.999H3.564C3.252 5 3 4.776 3 4.5s.252-.5.563-.5h7.874c.311 0 .563.224.563.5s-.252.5-.563.5z"/>
  </symbol>

  <symbol viewBox="0 0 15 15" id="ic-delete">
    <path fill="currentColor" d="M3 1l.212-.495A.833.833 0 0 1 3.978 0h3.044c.333 0 .635.199.766.505L8 1h2.5a.5.5 0 1 1 0 1H.5a.5.5 0 0 1 0-1H3zm7.455 2.542l-.879 10.541A1 1 0 0 1 8.58 15H2.42a1 1 0 0 1-.996-.917L.545 3.542A.5.5 0 0 1 1.043 3h8.914a.5.5 0 0 1 .498.542zM8 5c-.278 0-.5.189-.5.422L7 12.078c0 .236.224.422.5.422.278 0 .5-.189.5-.422l.5-6.656C8.5 5.186 8.276 5 8 5zM5.5 5c-.278 0-.5.175-.5.391v7.218c0 .218.224.391.5.391.278 0 .5-.175.5-.391V5.39C6 5.173 5.776 5 5.5 5zM3 5c-.278 0-.5.193-.5.432l.5 6.636c0 .24.224.432.5.432.278 0 .5-.193.5-.432l-.5-6.636C3.5 5.192 3.276 5 3 5z"/>
  </symbol>

  <symbol viewBox="0 0 15 15" id="ic-phone">
    <path fill="currentColor" d="M14.133 12.476L13.1 13.51a3.037 3.037 0 0 1-3.87.357 37.599 37.599 0 0 1-4.556-3.54 37.603 37.603 0 0 1-3.54-4.556 3.038 3.038 0 0 1 .357-3.87L2.524.867a.912.912 0 0 1 1.29 0l1.72 1.72a.912.912 0 0 1 0 1.29l-.741.74a.608.608 0 0 0-.088.749 16.407 16.407 0 0 0 2.118 2.81 16.41 16.41 0 0 0 2.81 2.12c.24.147.55.11.75-.089l.74-.74a.912.912 0 0 1 1.29 0l1.72 1.72a.912.912 0 0 1 0 1.29z"/>
  </symbol>

  <symbol viewBox="0 0 15 15" id="ic-uncategorized">
    <path fill="currentColor" d="M3.262 10.76a1.63 1.63 0 0 1-1.304 1.599v2.315a.326.326 0 1 1-.652 0v-2.315a1.63 1.63 0 0 1 0-3.196V.326a.326.326 0 1 1 .652 0v8.837a1.63 1.63 0 0 1 1.304 1.598zm10.432-4.206V.326a.326.326 0 1 0-.652 0v6.228a1.63 1.63 0 0 0 0 3.196v4.924a.326.326 0 1 0 .652 0V9.75a1.63 1.63 0 0 0 0-3.196zM7.826 2.641V.326a.326.326 0 1 0-.652 0v2.315a1.63 1.63 0 0 0 0 3.196v8.837a.326.326 0 1 0 .652 0V5.837a1.63 1.63 0 0 0 0-3.196z"/>
  </symbol>

  <symbol viewBox="0 0 15 15" id="ic-alert">
    <path fill="#FFA800" d="M8.46.584l6.392 11.666c.305.558.124 1.272-.407 1.594-.168.102-.359.156-.553.156H1.108C.496 14 0 13.478 0 12.833c0-.204.051-.406.148-.583L6.54.584c.306-.558.984-.75 1.514-.428.168.103.308.25.406.428z"/>
    <rect width="1.524" height="4.714" x="6.75" y="4" fill="#000" rx=".762"/>
    <circle cx="7.5" cy="11" r="1" fill="currentColor"/>
  </symbol>

  <symbol viewBox="0 0 13 12" id="ic-changed_stage">
    <path fill="currentColor" d="M13 .82V8.1c0 .43-.35.78-.78.78h-2.6a.78.78 0 0 1-.78-.78V5.734a1.3 1.3 0 1 0 0-2.548V.82c0-.43.35-.78.78-.78h2.6c.43 0 .78.35.78.78zM2.6 7.06a1.3 1.3 0 0 1 1.56-1.274V3.42a.78.78 0 0 0-.78-.78H.78a.78.78 0 0 0-.78.78v7.28c0 .43.35.78.78.78h2.6c.43 0 .78-.35.78-.78V8.334A1.3 1.3 0 0 1 2.6 7.06zm6.5-1.82a.78.78 0 1 0-.732-1.04H6.76a.52.52 0 0 0-.52.52V6.8H4.632a.78.78 0 1 0 0 .52H6.24a.52.52 0 0 0 .52-.52V4.72h1.608c.11.31.402.52.732.52z"/>
  </symbol>

  <symbol viewBox="0 0 23 19" id="ic-archive">
    <path fill="currentColor" fill-rule="evenodd" d="M2 0h19a2 2 0 0 1 2 2v3H0V2a2 2 0 0 1 2-2zM1 6h21v11a2 2 0 0 1-2 2H3a2 2 0 0 1-2-2V6zm7.5 1a1.5 1.5 0 0 0 0 3h6a1.5 1.5 0 0 0 0-3h-6z"/>
  </symbol>

  <symbol viewBox="0 0 23 19" id="ic-reject">
    <path fill="currentColor" fill-rule="evenodd" d="M2 0h19a2 2 0 0 1 2 2v3H0V2a2 2 0 0 1 2-2zM1 6h21v11a2 2 0 0 1-2 2H3a2 2 0 0 1-2-2V6zm11.5 7.586V9a1 1 0 0 0-2 0v4.586l-2.293-2.293a1 1 0 1 0-1.414 1.414l4 4a1 1 0 0 0 1.414 0l4-4a1 1 0 0 0-1.414-1.414L12.5 13.586z"/>
  </symbol>

  <symbol viewBox="0 0 13 13" id="ic-interview_scheduled">
    <path fill="currentColor" d="M13 2.08v2.08H0V2.08a.52.52 0 0 1 .52-.52h2.6V.78a.26.26 0 0 1 .52 0v.78h5.72V.78a.26.26 0 0 1 .52 0v.78h2.6a.52.52 0 0 1 .52.52zM0 4.68h13v7.8a.52.52 0 0 1-.52.52H.52a.52.52 0 0 1-.52-.52v-7.8zm9.36 2.6h1.04V6.24H9.36v1.04zm-2.6 0H7.8V6.24H6.76v1.04zM5.2 9.88h1.04V8.84H5.2v1.04zm-2.6 0h1.04V8.84H2.6v1.04z"/>
  </symbol>

  <symbol viewBox="0 0 13 13" id="ic-interview_updated">
    <path fill="currentColor" d="M13 2.08v2.08H0V2.08a.52.52 0 0 1 .52-.52h2.6V.78a.26.26 0 0 1 .52 0v.78h5.72V.78a.26.26 0 0 1 .52 0v.78h2.6a.52.52 0 0 1 .52.52zM0 4.68h13v7.8a.52.52 0 0 1-.52.52H.52a.52.52 0 0 1-.52-.52v-7.8zm4.756 3.564a.26.26 0 0 0 .368 0L6.24 7.128v3.532a.26.26 0 0 0 .52 0V7.128l1.116 1.116a.26.26 0 0 0 .368-.368l-1.56-1.56a.26.26 0 0 0-.368 0l-1.56 1.56a.26.26 0 0 0 0 .368z"/>
  </symbol>

  <symbol viewBox="0 0 13 13" id="ic-interview_canceled">
    <path fill="currentColor" d="M13 2.08v2.08H0V2.08a.52.52 0 0 1 .52-.52h2.6V.78a.26.26 0 0 1 .52 0v.78h5.72V.78a.26.26 0 0 1 .52 0v.78h2.6a.52.52 0 0 1 .52.52zM0 4.68h13v7.8a.52.52 0 0 1-.52.52H.52a.52.52 0 0 1-.52-.52v-7.8zm6.132 3.9L4.756 9.956a.26.26 0 1 0 .368.368L6.5 8.948l1.376 1.376a.26.26 0 0 0 .368-.368L6.868 8.58l1.376-1.376a.26.26 0 0 0-.368-.368L6.5 8.212 5.124 6.836a.26.26 0 0 0-.368.368L6.132 8.58z"/>
  </symbol>

  <symbol viewBox="0 0 11 13" id="ic-document_approved">
    <path fill="currentColor" d="M2.64 2.34V1.3a.26.26 0 0 1 .26-.26h.26V.78c0-.43.35-.78.78-.78h3.12c.43 0 .78.35.78.78v.26h.26a.26.26 0 0 1 .26.26v1.04a.26.26 0 0 1-.26.26H2.9a.26.26 0 0 1-.26-.26zm7.8 0v9.88c0 .43-.35.78-.78.78H1.34a.78.78 0 0 1-.78-.78V2.34c0-.43.35-.78.78-.78h.828a.77.77 0 0 0-.048.26v.52c0 .43.35.78.78.78h5.2c.43 0 .78-.35.78-.78v-.52a.77.77 0 0 0-.048-.26h.828c.43 0 .78.35.78.78zM7.764 6.316a.26.26 0 0 0-.368 0L4.964 8.748 3.586 7.6a.26.26 0 1 0-.333.4l1.56 1.3a.26.26 0 0 0 .35-.016l2.6-2.6a.26.26 0 0 0 0-.368z"/>
  </symbol>

  <symbol viewBox="0 0 12 11" id="ic-send">
    <path fill="currentColor" fill-rule="evenodd" d="M0 9.963c0 .824.658 1.242 1.469.937l9.312-4.295c1.626-.61 1.625-1.6 0-2.211L1.469.099C.66-.205 0 .214 0 1.037l.813 3.427c.077.322.36.554.69.565l3.439.115a.362.362 0 0 1 .352.356c0 .19-.16.35-.352.356l-3.438.115a.735.735 0 0 0-.691.565L0 9.963z"/>
  </symbol>

  <symbol viewBox="0 0 30 30" id="ic-spinner">
    <g fill="currentColor" fill-rule="evenodd">
      <path fill-rule="nonzero" d="M4.96 22.06a1.705 1.705 0 1 1 2.787-1.963A8.864 8.864 0 1 0 6.136 15a1.705 1.705 0 1 1-3.409 0C2.727 8.222 8.222 2.727 15 2.727S27.273 8.222 27.273 15 21.778 27.273 15 27.273c-4.042 0-7.756-1.97-10.04-5.213z"/>
    </g>
  </symbol>

  <symbol viewBox="0 0 17 17" id="ic-lens">
    <path fill="currentColor" fill-rule="evenodd" d="M1.84 6.582A4.747 4.747 0 0 1 6.582 1.84a4.747 4.747 0 0 1 4.743 4.742 4.747 4.747 0 0 1-4.743 4.743A4.747 4.747 0 0 1 1.84 6.582m14.62 8.103l-4.567-4.508a6.377 6.377 0 0 0 1.105-3.595A6.423 6.423 0 0 0 6.582.167 6.423 6.423 0 0 0 .167 6.582a6.423 6.423 0 0 0 6.415 6.416c1.3 0 2.51-.391 3.523-1.06l4.591 4.533c.244.242.563.362.882.362a1.255 1.255 0 0 0 .882-2.148"/>
  </symbol>

  <symbol viewBox="0 0 16 16" id="ic-medal">
    <path fill="currentColor" fill-rule="nonzero" d="M15.898 13.662a.495.495 0 0 1-.51.185l-2.504-.575-.857 2.393a.502.502 0 0 1-.431.33l-.04.001a.498.498 0 0 1-.437-.26l-2.104-3.844c-.333.057-.67.103-1.02.103-.36 0-.709-.045-1.054-.106l-2.059 3.844a.5.5 0 0 1-.44.264l-.037-.001a.503.503 0 0 1-.433-.33l-.857-2.393-2.505.575a.5.5 0 0 1-.55-.727l2.52-4.603a5.965 5.965 0 0 1-.57-2.521A5.99 5.99 0 0 1 7.995 0a5.992 5.992 0 0 1 5.986 5.997c0 .888-.204 1.723-.55 2.48l2.507 4.645a.497.497 0 0 1-.041.54zM1.472 12.624l1.853-.426c.246-.06.496.08.582.317l.627 1.753 1.422-2.655A5.976 5.976 0 0 1 3.17 9.518l-1.698 3.106zM8.005 1.002A5 5 0 0 0 3.01 5.997a5 5 0 0 0 4.995 4.995 5 5 0 0 0 4.993-4.995 5 5 0 0 0-4.993-4.995zm4.84 8.488a5.967 5.967 0 0 1-2.84 2.132l1.457 2.659.632-1.766a.495.495 0 0 1 .581-.317l1.862.427-1.692-3.135z"/>
  </symbol>

  <symbol viewBox="0 0 11 12" id="ic-copy">
    <path fill="currentColor" fill-rule="nonzero" d="M1.92 11.04h6.72v.24a.72.72 0 0 1-.72.72H.72a.72.72 0 0 1-.72-.72V2.16a.72.72 0 0 1 .72-.72h.24v8.64c0 .53.43.96.96.96zm5.518-8.16h2.477C9.9 2.861 7.189.143 7.189.143l.01 2.498a.24.24 0 0 0 .24.239zm2.642.48v6.48a.72.72 0 0 1-.72.72h-7.2a.72.72 0 0 1-.72-.72V.72A.72.72 0 0 1 2.16 0h4.548l.01 2.643a.721.721 0 0 0 .72.717h2.642z" />
  </symbol>

  <symbol viewBox="0 0 21 25" id="ic-attendance">
    <path fill="currentColor" fill-rule="nonzero" d="M13.996 6.502l-.02-6.205 6.585 6.587c.033.037.065.076.095.116h-6.16a.5.5 0 0 1-.5-.498zM15 15.5a4.5 4.5 0 1 1-9 0 4.5 4.5 0 0 1 9 0zm-2.2 1.6L11 15.75V13.5a.5.5 0 1 0-1 0V16a.5.5 0 0 0 .2.4l2 1.5a.5.5 0 0 0 .6-.8zM21 8v15.5c0 .828-.672 1.5-1.5 1.5h-18C.672 25 0 24.328 0 23.5v-22C0 .672.672 0 1.5 0h11.476l.02 6.506A1.503 1.503 0 0 0 14.496 8H21zm-5 7.5a5.5 5.5 0 1 0-11 0 5.5 5.5 0 0 0 11 0z"/>
  </symbol>

  <symbol viewBox="0 0 13 13" id="ic-edit">
    <path fill="currentColor" fill-rule="nonzero" d="M7.645 2.382l2.973 2.973-6.837 6.838a1.051 1.051 0 0 1-.537.287l-2.389.504a.714.714 0 0 1-.841-.841L.52 9.756c.04-.203.14-.39.287-.537l6.838-6.837zM11.629.419l.952.952a1.43 1.43 0 0 1 0 2.021l-1.22 1.22-2.973-2.974 1.22-1.22a1.43 1.43 0 0 1 2.021 0zM7.645 2.382l2.973 2.973-6.837 6.838a1.051 1.051 0 0 1-.537.287l-2.389.504a.714.714 0 0 1-.841-.841L.52 9.756c.04-.203.14-.39.287-.537l6.838-6.837zM11.629.419l.952.952a1.43 1.43 0 0 1 0 2.021l-1.22 1.22-2.973-2.974 1.22-1.22a1.43 1.43 0 0 1 2.021 0z"/>
  </symbol>

  <symbol viewBox="0 0 13 13" id="ic-pending">
    <rect width="12" height="12" x=".5" y=".5" fill="#FFF" stroke="#FFA800" rx="6"/>
    <circle cx="6.5" cy="6.5" r="2.5" fill="#FFA800" opacity=".6"/>
  </symbol>

  <symbol viewBox="0 0 13 13" id="ic-no-pass">
    <rect width="13" height="13" fill="#E55353" rx="6.5"/>
    <path fill="#FFF" id="b" d="M6.5 5.44L4.38 3.32a.75.75 0 1 0-1.06 1.06L5.44 6.5 3.32 8.62a.75.75 0 1 0 1.06 1.06L6.5 7.56l2.12 2.12a.75.75 0 1 0 1.06-1.06L7.56 6.5l2.12-2.12a.75.75 0 1 0-1.06-1.06L6.5 5.44z"/>
  </symbol>

  <symbol viewBox="0 0 13 13" id="ic-pass">
    <rect width="13" height="13" fill="#87C051" rx="6.5"/>
    <g fill-rule="nonzero">
      <path id="b" fill="#FFFFFF" d="M4.328 6.587a.772.772 0 0 0-1.1 0 .791.791 0 0 0 0 1.111L4.783 9.27a.772.772 0 0 0 1.1 0l3.89-3.929a.791.791 0 0 0 0-1.11.772.772 0 0 0-1.1 0l-3.34 3.372-1.005-1.016z"/>
      <path id="b" fill="#FFFFFF" d="M4.328 6.587a.772.772 0 0 0-1.1 0 .791.791 0 0 0 0 1.111L4.783 9.27a.772.772 0 0 0 1.1 0l3.89-3.929a.791.791 0 0 0 0-1.11.772.772 0 0 0-1.1 0l-3.34 3.372-1.005-1.016z"/>
    </g>
  </symbol>

  <symbol viewBox="0 0 13 13" id="ic-null">
    <g>
      <rect fill="#FFF" id="a" width="13" height="13" rx="6.5"/>
      <rect fill="#FFF" width="12" height="12" x=".5" y=".5" stroke="#000" stroke-opacity=".1" rx="6"/>
    </g>
    <path fill="#000" fill-opacity=".1" fill-rule="nonzero" d="M6.5 5.44L4.38 3.32a.75.75 0 1 0-1.06 1.06L5.44 6.5 3.32 8.62a.75.75 0 1 0 1.06 1.06L6.5 7.56l2.12 2.12a.75.75 0 1 0 1.06-1.06L7.56 6.5l2.12-2.12a.75.75 0 1 0-1.06-1.06L6.5 5.44z"/>
  </symbol>

  <symbol viewBox="0 0 10 10" id="ic-dot-mini">
    <g fill="none" fill-rule="evenodd" transform="translate(2 2)">
      <circle fill="currentColor" cx="3" cy="3" r="3"/>
    </g>
  </symbol>

  <symbol viewBox="0 0 23 19" id="ic-unarchive">
    <path fill="currentColor" fill-rule="evenodd" d="M2 0h19a2 2 0 0 1 2 2v3H0V2a2 2 0 0 1 2-2zM1 6h21v11a2 2 0 0 1-2 2H3a2 2 0 0 1-2-2V6zm11.5 5.414V16a1 1 0 0 1-2 0v-4.586l-2.293 2.293a1 1 0 1 1-1.414-1.414l4-4a1 1 0 0 1 1.414 0l4 4a1 1 0 0 1-1.414 1.414L12.5 11.414z"/>
  </symbol>

  <symbol viewBox="0 0 15 15" id="ic-info">
    <g fill="none" fill-rule="evenodd">
      <path d="M-24-16h500v48H-24z"/>
      <path fill="currentColor" d="M7.5 16a7.5 7.5 0 1 1 0-15 7.5 7.5 0 0 1 0 15zm-2-8.5A.5.5 0 0 0 6 8h.5v4H6a.5.5 0 1 0 0 1h3.5a.5.5 0 1 0 0-1H9V7.5a.5.5 0 0 0-.5-.5H6a.5.5 0 0 0-.5.5zm2-1.5a1.5 1.5 0 1 0 0-3 1.5 1.5 0 0 0 0 3z"/>
    </g>
  </symbol>

  <symbol viewBox="0 0 15 15" id="ic-dates">
    <path fill="currentColor" d="M8 13.625a5.625 5.625 0 1 0 0-11.25 5.625 5.625 0 0 0 0 11.25zM8 15.5a7.5 7.5 0 1 1 0-15 7.5 7.5 0 0 1 0 15zM8 3.312c.518 0 .938.42.938.938v2.813H7.062V4.25c0-.518.42-.938.938-.938zm0 7.5a.937.937 0 1 1 0 1.875.937.937 0 1 1 0-1.875zm-3.75-3.75a.938.938 0 1 1 0 1.875.938.938 0 0 1 0-1.875zm7.5 0H7.062v.875a1 1 0 0 0 1 1h3.688a.937.937 0 0 0 0-1.875z"/>
  </symbol>

  <symbol viewBox="0 0 15 15" id="ic-ranking-null">
    <path fill="currentColor" d="M13.125 15H1.875A1.875 1.875 0 0 1 0 13.125V1.875C0 .839.84 0 1.875 0h11.25C14.16 0 15 .84 15 1.875v11.25C15 14.161 14.16 15 13.125 15zM14 1.929A.929.929 0 0 0 13.071 1H1.93A.928.928 0 0 0 1 1.929V13.07c0 .514.415.929.929.929H13.07a.929.929 0 0 0 .929-.929V1.93zm-2 10.025h-1.785l-.658-1.732H5.449l-.658 1.732H3.006L6.523 3h1.96L12 11.954zM9.114 8.839L7.503 4.571 5.892 8.839h3.222z"/>
  </symbol>

  <symbol viewBox="0 0 15 15" id="ic-public">
    <path fill="currentColor" d="M6.618 13.168v-.138a.441.441 0 0 0-.197-.367l-.465-.31a1.486 1.486 0 0 1-.662-1.237v-.68c0-.467-.186-.916-.517-1.247L3.325 7.736A5.325 5.325 0 0 1 2.053 5.7a5.737 5.737 0 0 0 4.565 7.469zm3.11-10.955a1.361 1.361 0 0 1-1.36 1.316H7.5a.882.882 0 0 0-.882.883v.44a.882.882 0 0 1-.883.883h-.44a.882.882 0 1 0 0 1.765h3.292c.895 0 1.654.658 1.78 1.544l.167 1.165a.441.441 0 0 0 .437.38h.279c.339 0 .618.254.657.582a5.737 5.737 0 0 0-2.18-8.957zM7.5 15a7.5 7.5 0 1 1 0-15 7.5 7.5 0 0 1 0 15z"/>
  </symbol>

  <symbol viewBox="0 0 15 15" id="ic-clear">
    <path fill="rgba(75, 89, 102, 0.4)" d="M7.5 15a7.5 7.5 0 1 0 0-15 7.5 7.5 0 0 0 0 15zm1.218-7.5l2.027 2.027a.86.86 0 1 1-1.218 1.218L7.5 8.718l-2.027 2.027a.86.86 0 1 1-1.218-1.218L6.282 7.5 4.255 5.473a.86.86 0 1 1 1.218-1.218L7.5 6.282l2.027-2.027a.86.86 0 1 1 1.218 1.218L8.718 7.5z"/>
  </symbol>

  <symbol viewBox="0 0 15 15" id="ic-language">
    <path fill="currentColor" d="M7.5 15a7.5 7.5 0 1 0 0-15 7.5 7.5 0 0 0 0 15zm0-1.406a6.18 6.18 0 0 1-4.219-1.647c.035-.909-.056-3.51 4.219-3.51s4.184 2.601 4.219 3.51A6.18 6.18 0 0 1 7.5 13.594m0-10.781a2.344 2.344 0 1 1 0 4.687 2.344 2.344 0 0 1 0-4.688"/>
  </symbol>

  <symbol viewBox="0 0 15 15" id="ic-psychometric">
    <path fill="currentColor" d="M7.5 15a7.5 7.5 0 1 0 0-15 7.5 7.5 0 0 0 0 15zm0-1.406a6.18 6.18 0 0 1-4.219-1.647c.035-.909-.056-3.51 4.219-3.51s4.184 2.601 4.219 3.51A6.18 6.18 0 0 1 7.5 13.594m0-10.781a2.344 2.344 0 1 1 0 4.687 2.344 2.344 0 0 1 0-4.688"/>
  </symbol>

  <symbol viewBox="0 0 15 15" id="ic-roleplay">
    <path fill="currentColor" d="M7.5 15a7.5 7.5 0 1 0 0-15 7.5 7.5 0 0 0 0 15zm0-1.406a6.18 6.18 0 0 1-4.219-1.647c.035-.909-.056-3.51 4.219-3.51s4.184 2.601 4.219 3.51A6.18 6.18 0 0 1 7.5 13.594m0-10.781a2.344 2.344 0 1 1 0 4.687 2.344 2.344 0 0 1 0-4.688"/>
  </symbol>

  <symbol viewBox="0 0 15 15" id="ic-experience">
    <path fill="currentColor" d="M7.5 15a7.5 7.5 0 1 0 0-15 7.5 7.5 0 0 0 0 15zm0-1.406a6.18 6.18 0 0 1-4.219-1.647c.035-.909-.056-3.51 4.219-3.51s4.184 2.601 4.219 3.51A6.18 6.18 0 0 1 7.5 13.594m0-10.781a2.344 2.344 0 1 1 0 4.687 2.344 2.344 0 0 1 0-4.688"/>
  </symbol>

  <symbol viewBox="0 0 15 15" id="ic-appointment">
    <path fill="currentColor" d="M5.875 2.24c0-.928.728-1.68 1.625-1.68s1.625.752 1.625 1.68c0 .928-.728 1.68-1.625 1.68s-1.625-.752-1.625-1.68zm5.417 1.12c.897 0 1.625-.752 1.625-1.68 0-.928-.728-1.68-1.625-1.68-.898 0-1.625.752-1.625 1.68 0 .928.727 1.68 1.625 1.68zm-7.584 0c.898 0 1.625-.752 1.625-1.68C5.333.752 4.606 0 3.708 0c-.897 0-1.625.752-1.625 1.68 0 .928.728 1.68 1.625 1.68zm.542 5.88V7.28c0-1.034.462-2.01 1.251-2.644a2.629 2.629 0 0 0-2.906-.472C1.62 4.614.995 5.617 1 6.72v1.4c0 .464.364.84.813.84h.27v2.52c0 .464.364.84.813.84H4.52a.827.827 0 0 0 .812-.84v-.868c-.63-.134-1.082-.707-1.083-1.372zm7.042-5.32a2.638 2.638 0 0 0-1.793.716A3.395 3.395 0 0 1 10.75 7.28v1.96c-.001.665-.453 1.238-1.083 1.372v.868c0 .464.363.84.812.84h1.625a.827.827 0 0 0 .813-.84V8.96h.27A.827.827 0 0 0 14 8.12v-1.4c0-1.546-1.213-2.8-2.708-2.8zm-1.084 5.32V7.28c0-1.546-1.212-2.8-2.708-2.8-1.496 0-2.708 1.254-2.708 2.8v1.96c0 .464.363.84.812.84h.271v3.08c0 .464.364.84.813.84h1.625a.827.827 0 0 0 .812-.84v-3.08h.27a.827.827 0 0 0 .813-.84z"/>
  </symbol>

  <symbol viewBox="0 0 15 15" id="ic-incorporation">
    <path fill="currentColor" d="M5.875 2.24c0-.928.728-1.68 1.625-1.68s1.625.752 1.625 1.68c0 .928-.728 1.68-1.625 1.68s-1.625-.752-1.625-1.68zm5.417 1.12c.897 0 1.625-.752 1.625-1.68 0-.928-.728-1.68-1.625-1.68-.898 0-1.625.752-1.625 1.68 0 .928.727 1.68 1.625 1.68zm-7.584 0c.898 0 1.625-.752 1.625-1.68C5.333.752 4.606 0 3.708 0c-.897 0-1.625.752-1.625 1.68 0 .928.728 1.68 1.625 1.68zm.542 5.88V7.28c0-1.034.462-2.01 1.251-2.644a2.629 2.629 0 0 0-2.906-.472C1.62 4.614.995 5.617 1 6.72v1.4c0 .464.364.84.813.84h.27v2.52c0 .464.364.84.813.84H4.52a.827.827 0 0 0 .812-.84v-.868c-.63-.134-1.082-.707-1.083-1.372zm7.042-5.32a2.638 2.638 0 0 0-1.793.716A3.395 3.395 0 0 1 10.75 7.28v1.96c-.001.665-.453 1.238-1.083 1.372v.868c0 .464.363.84.812.84h1.625a.827.827 0 0 0 .813-.84V8.96h.27A.827.827 0 0 0 14 8.12v-1.4c0-1.546-1.213-2.8-2.708-2.8zm-1.084 5.32V7.28c0-1.546-1.212-2.8-2.708-2.8-1.496 0-2.708 1.254-2.708 2.8v1.96c0 .464.363.84.812.84h.271v3.08c0 .464.364.84.813.84h1.625a.827.827 0 0 0 .812-.84v-3.08h.27a.827.827 0 0 0 .813-.84z"/>
  </symbol>

  <symbol viewBox="0 0 15 15" id="ic-default">
    <path fill="currentColor" d="M3.262 10.76a1.63 1.63 0 0 1-1.304 1.599v2.315a.326.326 0 1 1-.652 0v-2.315a1.63 1.63 0 0 1 0-3.196V.326a.326.326 0 1 1 .652 0v8.837a1.63 1.63 0 0 1 1.304 1.598zm10.432-4.206V.326a.326.326 0 1 0-.652 0v6.228a1.63 1.63 0 0 0 0 3.196v4.924a.326.326 0 1 0 .652 0V9.75a1.63 1.63 0 0 0 0-3.196zM7.826 2.641V.326a.326.326 0 1 0-.652 0v2.315a1.63 1.63 0 0 0 0 3.196v8.837a.326.326 0 1 0 .652 0V5.837a1.63 1.63 0 0 0 0-3.196z"/>
  </symbol>

  <symbol viewBox="0 0 16 14" id="ic-lead_created">
    <path fill="currentColor" d="M2.56 4.12a3.2 3.2 0 1 1 6.4 0 3.2 3.2 0 0 1-6.4 0zm3.2 3.84a5.12 5.12 0 0 0-5.12 5.12v.32c0 .177.143.32.32.32h9.6a.32.32 0 0 0 .32-.32v-.32a5.12 5.12 0 0 0-5.12-5.12zm9.28-3.2h-1.6v-1.6a.32.32 0 0 0-.64 0v1.6h-1.6a.32.32 0 0 0 0 .64h1.6V7a.32.32 0 0 0 .64 0V5.4h1.6a.32.32 0 0 0 0-.64z"/>
  </symbol>

  <symbol viewBox="0 0 16 14" id="ic-lead_rejected">
    <path fill="currentColor" d="M2.56 4.12a3.2 3.2 0 1 1 6.4 0 3.2 3.2 0 0 1-6.4 0zm3.2 3.84a5.12 5.12 0 0 0-5.12 5.12v.32c0 .177.143.32.32.32h9.6a.32.32 0 0 0 .32-.32v-.32a5.12 5.12 0 0 0-5.12-5.12zM16 5.08a2.88 2.88 0 1 1-5.76 0 2.88 2.88 0 0 1 5.76 0zm-1.545 1.788l-3.123-3.123a2.22 2.22 0 0 0-.452 1.335 2.243 2.243 0 0 0 2.24 2.24 2.22 2.22 0 0 0 1.335-.452zm.905-1.788a2.243 2.243 0 0 0-2.24-2.24 2.22 2.22 0 0 0-1.335.452l3.123 3.123a2.22 2.22 0 0 0 .452-1.335z"/>
  </symbol>

  <symbol viewBox="0 0 14 14" id="ic-lead_not_shown">
    <path fill="currentColor" d="M2.84 4.12a3.2 3.2 0 1 1 6.4 0 3.2 3.2 0 0 1-6.4 0zm3.2 3.84a5.12 5.12 0 0 0-5.12 5.12v.32c0 .177.143.32.32.32h9.6a.32.32 0 0 0 .32-.32v-.32a5.12 5.12 0 0 0-5.12-5.12zm6.4 0h.64V4.12h-.64v3.84zm0-5.76v1.28h.64V2.2h-.64z"/>
  </symbol>

  <symbol viewBox="0 0 13 12" id="ic-lead_changed_stage">
    <path fill="currentColor" d="M13 .82V8.1c0 .43-.35.78-.78.78h-2.6a.78.78 0 0 1-.78-.78V5.734a1.3 1.3 0 1 0 0-2.548V.82c0-.43.35-.78.78-.78h2.6c.43 0 .78.35.78.78zM2.6 7.06a1.3 1.3 0 0 1 1.56-1.274V3.42a.78.78 0 0 0-.78-.78H.78a.78.78 0 0 0-.78.78v7.28c0 .43.35.78.78.78h2.6c.43 0 .78-.35.78-.78V8.334A1.3 1.3 0 0 1 2.6 7.06zm6.5-1.82a.78.78 0 1 0-.732-1.04H6.76a.52.52 0 0 0-.52.52V6.8H4.632a.78.78 0 1 0 0 .52H6.24a.52.52 0 0 0 .52-.52V4.72h1.608c.11.31.402.52.732.52z"/>
  </symbol>

  <symbol viewBox="0 0 25 21" id="ic-lead_unarchived">
    <path fill="currentColor" fill-rule="nonzero" d="M24.715 9.395l-7.871 7.466a.5.5 0 0 1-.845-.363v-4.499c-4.592 0-11.393 3.209-15.074 8.771a.504.504 0 0 1-.924-.299c.553-9.57 7.874-15.472 15.998-15.472V.5a.5.5 0 0 1 .844-.364L24.715 8a1 1 0 0 1 0 1.396z"/>
  </symbol>

  <symbol viewBox="0 0 11 13" id="ic-requirement_value_changed">
    <path fill="currentColor" d="M2.64 2.34V1.3a.26.26 0 0 1 .26-.26h.26V.78c0-.43.35-.78.78-.78h3.12c.43 0 .78.35.78.78v.26h.26a.26.26 0 0 1 .26.26v1.04a.26.26 0 0 1-.26.26H2.9a.26.26 0 0 1-.26-.26zm7.8 0v9.88c0 .43-.35.78-.78.78H1.34a.78.78 0 0 1-.78-.78V2.34c0-.43.35-.78.78-.78h.828a.77.77 0 0 0-.048.26v.52c0 .43.35.78.78.78h5.2c.43 0 .78-.35.78-.78v-.52a.77.77 0 0 0-.048-.26h.828c.43 0 .78.35.78.78zM7.764 6.316a.26.26 0 0 0-.368 0L4.964 8.748 3.586 7.6a.26.26 0 1 0-.333.4l1.56 1.3a.26.26 0 0 0 .35-.016l2.6-2.6a.26.26 0 0 0 0-.368z"/>
  </symbol>

  <symbol viewBox="0 0 24 24" id="ic-check">
    <path fill="currentColor" d="M20.285 2l-11.285 11.567-5.286-5.011-3.714 3.716 9 8.728 15-15.285z"/>
  </symbol>

  <symbol viewBox="0 0 24 24" id="ic-play">
    <path fill="currentColor" fill-rule="evenodd" clip-rule="evenodd" d="M16,10c0-0.36-0.2-0.67-0.49-0.84l0.01-0.01l-10-6L5.51,3.16 C5.36,3.07,5.19,3,5,3C4.45,3,4,3.45,4,4v12c0,0.55,0.45,1,1,1c0.19,0,0.36-0.07,0.51-0.16l0.01,0.01l10-6l-0.01-0.01 C15.8,10.67,16,10.36,16,10z"/>
  </symbol>

  <symbol viewBox="0 0 24 24" id="ic-pause">
    <path fill="currentColor" fill-rule="evenodd" clip-rule="evenodd" d="M7,3H4C3.45,3,3,3.45,3,4v12c0,0.55,0.45,1,1,1h3c0.55,0,1-0.45,1-1V4 C8,3.45,7.55,3,7,3z M16,3h-3c-0.55,0-1,0.45-1,1v12c0,0.55,0.45,1,1,1h3c0.55,0,1-0.45,1-1V4C17,3.45,16.55,3,16,3z"/>
  </symbol>

  <symbol viewBox="0 0 32 32" id="ic-band_aid">
    <path fill="currentColor" d="m31.452 23.505-7.947 7.946a1.873 1.873 0 0 1 -2.649 0l-3.973-3.973.883-.883 3.973 3.973a.624.624 0 0 0 .884 0l7.946-7.946a.625.625 0 0 0 0-.883l-3.973-3.974.883-.883 3.973 3.973a1.874 1.874 0 0 1 0 2.65zm-26.93-8.388.883-.883-3.973-3.973a.625.625 0 0 1 0-.883l7.946-7.948a.625.625 0 0 1 .883 0l3.973 3.974.883-.884-3.973-3.97a1.873 1.873 0 0 0 -2.649 0l-7.945 7.945a1.873 1.873 0 0 0 0 2.649l3.973 3.973zm26.93-3.973-20.309 20.306a1.873 1.873 0 0 1 -2.649 0l-7.945-7.945a1.873 1.873 0 0 1 0-2.649l20.307-20.306a1.873 1.873 0 0 1 2.65 0l7.945 7.946a1.873 1.873 0 0 1 0 2.649zm-18.167 3.95a1.28 1.28 0 1 0 -1.81 1.811 1.28 1.28 0 0 0 1.81-1.81zm3.62 3.621a1.28 1.28 0 1 0 -1.81 1.81 1.28 1.28 0 0 0 1.81-1.81zm0-7.24a1.28 1.28 0 1 0 -1.81 1.81 1.28 1.28 0 0 0 1.81-1.81zm3.62 3.62a1.28 1.28 0 1 0 -1.81 1.81 1.28 1.28 0 0 0 1.81-1.81z" />
  </symbol>

  <symbol viewBox="0 0 32 20" id="ic-plain">
    <path fill="currentColor" fill-rule="nonzero" d="M30.101 10.852L7.548 16.795a3.84 3.84 0 0 1-4.012-1.335L.274 11.315A1.28 1.28 0 0 1 .95 9.287l2.306-.618a1.28 1.28 0 0 1 1.29.387l2.323 2.62 4.327-1.16-6.909-8.41A.64.64 0 0 1 4.6 1.066L7 .422a.64.64 0 0 1 .56.115l9.817 8.323 11.399-2.953a2.56 2.56 0 1 1 1.325 4.945zM28.93 18.32h-8.96a.64.64 0 1 0 0 1.28h8.96a.64.64 0 1 0 0-1.28z"/>
  </symbol>

  <symbol viewBox="0 0 26 34" id="ic-leaves">
    <path fill="currentColor" fill-rule="evenodd" d="M0 2v26.494a2 2 0 0 0 1.55 1.95L16.53 33.9a1.71 1.71 0 0 0 2.094-1.666v-1.149a1 1 0 0 1 1-1h4.163a2 2 0 0 0 2-2V2a2 2 0 0 0-2-2H2a2 2 0 0 0-2 2zm23.355 26.653h-3.73a1 1 0 0 1-1-1V4.58a2 2 0 0 0-1.697-1.977L9.312 1.433h14.043a1 1 0 0 1 1 1v25.22a1 1 0 0 1-1 1z"/>
  </symbol>

  <symbol viewBox="0 0 32 32" id="ic-feeder">
    <path fill="currentColor" fill-rule="evenodd" d="M27.872 14.085c.75.75.75 1.965 0 2.715l-.905.905a1.92 1.92 0 0 1-2.716 0l-9.956-9.956a1.92 1.92 0 0 1 0-2.715l.905-.905a1.92 1.92 0 0 1 2.716 0l9.956 9.956zM31.04.962L31.038.96a3.277 3.277 0 0 0-4.003-.493l-2.33 1.399s-4.526-.905-5.431 0l-.951.95c.18.12.346.256.498.408l9.956 9.956c.152.152.289.319.407.498l.95-.95c.906-.906 0-5.432 0-5.432l1.4-2.331c.773-1.29.57-2.94-.494-4.003zM13.39 8.655a3.202 3.202 0 0 1-.407-.499l-1.856 1.856 3.168 3.168a.64.64 0 0 1-.905.905l-3.168-3.168-2.715 2.715 3.168 3.168a.64.64 0 1 1-.905.905l-3.168-3.168-2.715 2.716 3.168 3.167a.64.64 0 0 1-.906.905l-3.167-3.167-2.42 2.419a1.92 1.92 0 0 0 0 2.715l8.146 8.146c.75.75 1.966.75 2.716 0l12.42-12.42a3.231 3.231 0 0 1-.498-.408L13.39 8.655z"/>
  </symbol>

  <symbol viewBox="0 0 32 30" id="ic-briefcase">
    <path fill="currentColor" fill-rule="evenodd" d="M25.6 15.64H32V27.8a1.922 1.922 0 0 1-1.92 1.92H1.92A1.922 1.922 0 0 1 0 27.8V15.64h6.4v1.28c0 .707.573 1.28 1.28 1.28h1.28a1.28 1.28 0 0 0 1.28-1.28v-1.28h11.52v1.28c0 .707.573 1.28 1.28 1.28h1.28a1.28 1.28 0 0 0 1.28-1.28v-1.28zM32 7.32v7.04h-6.4v-1.28a1.28 1.28 0 0 0-1.28-1.28h-1.28a1.28 1.28 0 0 0-1.28 1.28v1.28H10.24v-1.28a1.28 1.28 0 0 0-1.28-1.28H7.68a1.28 1.28 0 0 0-1.28 1.28v1.28H0V7.32A1.922 1.922 0 0 1 1.92 5.4h6.4V3.48a3.204 3.204 0 0 1 3.2-3.2h8.96a3.204 3.204 0 0 1 3.2 3.2V5.4h6.4c1.06.001 1.919.86 1.92 1.92zm-9.6-3.84a1.922 1.922 0 0 0-1.92-1.92h-8.96A1.922 1.922 0 0 0 9.6 3.48V5.4h12.8V3.48z"/>
  </symbol>

  <symbol viewBox="0 0 32 30" id="ic-heart">
    <path fill="currentColor" fill-rule="nonzero" d="M8.96 11.16c0 .353.287.64.64.64h5.966l2.4 5.997a.639.639 0 0 0 .568.402l.026.001a.64.64 0 0 0 .573-.354l4.626-9.254 1.949 2.923a.64.64 0 0 0 .532.285h5.43c-2.16 8.766-14.376 17.114-14.944 17.505l-.73.415-.727-.506C14.646 28.78 0 18.759 0 9.24 0 3.88 3.343.28 8.32.28c3.488 0 6.252 2.592 7.686 4.287C17.45 2.875 20.228.28 23.68.28 28.657.28 32 3.88 32 9.24c-.004.428-.035.856-.093 1.28h-5.325l-2.37-3.555a.656.656 0 0 0-.572-.284.642.642 0 0 0-.533.353l-4.482 8.964-2.031-5.076A.639.639 0 0 0 16 10.52H9.6a.64.64 0 0 0-.64.64z"/>
  </symbol>

  <symbol viewBox="0 0 15 15" id="ic-two_buildings">
    <path fill="currentColor" fill-rule="nonzero" d="M14.7 14.4h-.9V6.3a.9.9 0 0 0-.9-.9H9.6v9H9V.9c0-.497-.403-.9-.9-.9h-6c-.497 0-.9.403-.9.9v13.5H.3a.3.3 0 0 0 0 .6h14.4a.3.3 0 0 0 0-.6zM3.9 2.4h2.4a.3.3 0 0 1 0 .6H3.9a.3.3 0 0 1 0-.6zm0 2.4h2.4a.3.3 0 0 1 0 .6H3.9a.3.3 0 0 1 0-.6zm0 2.4h2.4a.3.3 0 0 1 0 .6H3.9a.3.3 0 0 1 0-.6zm3.3 7.2H3v-4.2a.6.6 0 0 1 .6-.6h3a.6.6 0 0 1 .6.6v4.2zm5.1-1.2h-1.2a.3.3 0 0 1 0-.6h1.2a.3.3 0 0 1 0 .6zm0-2.4h-1.2a.3.3 0 0 1 0-.6h1.2a.3.3 0 0 1 0 .6zm0-2.4h-1.2a.3.3 0 0 1 0-.6h1.2a.3.3 0 0 1 0 .6z" />
  </symbol>

  <symbol viewBox="0 0 25 25" id="ic-three_buildings">
    <path fill="currentColor" fill-rule="nonzero" d="m24.5 24h-.5v-13a1 1 0 0 0 -1-1h-1v-.5a.5.5 0 1 0 -1 0v.5h-1a1 1 0 0 0 -1 1v13h-2v-19a1 1 0 0 0 -1-1h-3v-2.5a.5.5 0 1 0 -1 0v2.5h-3a1 1 0 0 0 -1 1v19h-2v-13a1 1 0 0 0 -1-1h-1v-.5a.5.5 0 0 0 -1 0v.5h-1a1 1 0 0 0 -1 1v13h-.5a.5.5 0 1 0 0 1h24a.5.5 0 1 0 0-1zm-20.5-2h-1v-1h1zm0-3h-1v-1h1zm0-3h-1v-1h1zm0-3h-1v-1h1zm10.5 7h-4a.5.5 0 1 1 0-1h4a.5.5 0 1 1 0 1zm0-3h-4a.5.5 0 1 1 0-1h4a.5.5 0 1 1 0 1zm0-3h-4a.5.5 0 1 1 0-1h4a.5.5 0 1 1 0 1zm0-3h-4a.5.5 0 1 1 0-1h4a.5.5 0 1 1 0 1zm0-3h-4a.5.5 0 1 1 0-1h4a.5.5 0 1 1 0 1zm7.5 14h-1v-1h1zm0-3h-1v-1h1zm0-3h-1v-1h1zm0-3h-1v-1h1z" />
  </symbol>

  <symbol viewBox="0 0 25 25" id="ic-calendar_empty">
    <path fill="currentColor" fill-rule="nonzero" d="m25 4v4h-25v-4a1 1 0 0 1 1-1h5v-1.5a.5.5 0 0 1 1 0v1.5h11v-1.5a.5.5 0 1 1 1 0v1.5h5a1 1 0 0 1 1 1zm-25 20a1 1 0 0 0 1 1h23a1 1 0 0 0 1-1v-15h-25z" />
  </symbol>

  <symbol viewBox="0 0 25 25" id="ic-check_list">
    <path fill="currentColor" fill-rule="nonzero" d="M23.5 1h-15A1.5 1.5 0 0 0 7 2.5v20A1.5 1.5 0 0 0 8.5 24h15a1.5 1.5 0 0 0 1.5-1.5v-20A1.5 1.5 0 0 0 23.5 1zm-9.646 15.854l-2 2a.5.5 0 0 1-.707 0l-1-1a.5.5 0 0 1 .707-.707l.646.646 1.646-1.646a.5.5 0 0 1 .707.707zm0-5l-2 2a.5.5 0 0 1-.707 0l-1-1a.5.5 0 0 1 .707-.707l.646.646 1.646-1.646a.5.5 0 0 1 .707.707zm0-5l-2 2a.5.5 0 0 1-.707 0l-1-1a.5.5 0 0 1 .707-.708l.646.647 1.646-1.647a.5.5 0 1 1 .707.708zM21.5 18h-6a.5.5 0 1 1 0-1h6a.5.5 0 1 1 0 1zm0-5h-6a.5.5 0 1 1 0-1h6a.5.5 0 1 1 0 1zm0-5h-6a.5.5 0 1 1 0-1h6a.5.5 0 1 1 0 1zM5 2.5V5H1V2.5A1.5 1.5 0 0 1 2.5 1h1A1.5 1.5 0 0 1 5 2.5zM1 6h4v16.5A1.5 1.5 0 0 1 3.5 24h-1A1.5 1.5 0 0 1 1 22.5V6z" />
  </symbol>

  <symbol viewBox="0 0 26 31" id="ic-ring">
    <path fill="currentColor" fill-rule="evenodd" d="M25.161 18.56A12.16 12.16 0 1 1 6.065 8.58l.803 1.002a10.88 10.88 0 1 0 12.267 0l.803-1.003a12.14 12.14 0 0 1 5.223 9.981zm-5.12-15.205c0-.509-.202-.997-.562-1.357L18.044.562A1.92 1.92 0 0 0 16.686 0h-7.37C8.807 0 8.32.202 7.96.562L6.524 1.998a1.92 1.92 0 0 0-.563 1.357V5.12h14.08V3.355zm-9.536 8.724c.364.456.916.72 1.499.721h1.995a1.92 1.92 0 0 0 1.498-.72l4.123-5.154c.125-.16.223-.337.292-.526H6.09c.068.19.167.367.29.526l4.124 5.153z"/>
  </symbol>

  <symbol viewBox="0 0 27 32" id="ic-book">
    <path fill="currentColor" fill-rule="evenodd" d="M24.52 0H2.76A1.922 1.922 0 0 0 .84 1.92v3.2H3.4v2.56H.84v3.84H3.4v2.56H.84v3.84H3.4v2.56H.84v3.84H3.4v2.56H.84v3.2A1.922 1.922 0 0 0 2.76 32h21.76a1.922 1.922 0 0 0 1.92-1.92V1.92A1.922 1.922 0 0 0 24.52 0zm-3.84 21.76H7.88a.64.64 0 0 1 0-1.28h12.8a.64.64 0 0 1 0 1.28zm0-5.12H7.88a.64.64 0 0 1 0-1.28h12.8a.64.64 0 0 1 0 1.28zm.64-6.4a1.28 1.28 0 0 1-1.28 1.28H8.52a1.28 1.28 0 0 1-1.28-1.28V6.4c0-.707.573-1.28 1.28-1.28h11.52c.707 0 1.28.573 1.28 1.28v3.84z"/>
  </symbol>

  <symbol viewBox="0 0 28 35" id="ic-strike">
    <path fill="currentColor" fill-rule="evenodd" d="M7.5 3c.438 1.473.687 4.503.83 7.627a10.26 10.26 0 0 0-4.87 8.757c0 5.655 4.529 10.24 10.114 10.24a10.02 10.02 0 0 0 7.133-2.98c.225.357 1.06 1.736 1.48 3.236.514 1.836.853 4.693-1.28 4.693H2.133s-1.706.113-1.706-2.009-.391-8.269 0-14.204C.934 10.651.85 6.727 2.444 3 4.037-.727 6.394-.727 7.5 3zm6.074 8.192c4.469 0 8.091 3.668 8.091 8.192s-3.622 8.192-8.09 8.192c-4.47 0-8.092-3.668-8.092-8.192s3.623-8.192 8.091-8.192zm3.54 6.144c-.838 0-1.517.688-1.517 1.536 0 .848.68 1.536 1.517 1.536.838 0 1.517-.688 1.517-1.536 0-.848-.68-1.536-1.517-1.536zm-6.068-2.048c-.838 0-1.517.688-1.517 1.536 0 .848.68 1.536 1.517 1.536.838 0 1.517-.688 1.517-1.536 0-.848-.68-1.536-1.517-1.536zm15.7-2.035c.522 0 .952.39 1.007.9l.006.111c0 .559-.454 1.011-1.013 1.011h-2.07a1.01 1.01 0 0 1-1.007-.9l-.006-.111c0-.559.454-1.011 1.012-1.011h2.071zM24.152 6.71l.095.085a1.012 1.012 0 0 1 0 1.431l-1.465 1.465a1.01 1.01 0 0 1-1.335.085l-.096-.085a1.012 1.012 0 0 1 0-1.43l1.465-1.465a1.01 1.01 0 0 1 1.336-.086zm-7.544-2.687c.559 0 1.012.454 1.012 1.012v2.072c0 .521-.391.951-.9 1.006l-.112.006a1.012 1.012 0 0 1-1.011-1.012V5.036c0-.521.391-.951.9-1.006l.111-.006z"/>
  </symbol>

  <symbol viewBox="0 0 32 24" id="ic-truck">
    <path fill="currentColor" fill-rule="evenodd" d="M19.2.4h4.952c.857 0 1.61.568 1.846 1.393l1.796 6.287H21.12a1.922 1.922 0 0 1-1.92-1.92V.4zM32 12.024v5.656c0 1.06-.86 1.92-1.92 1.92h-3.2a3.84 3.84 0 0 1-7.68 0h-7.68a3.84 3.84 0 0 1-7.68 0H1.92A1.92 1.92 0 0 1 0 17.68V2.32C0 1.26.86.4 1.92.4h16v5.76a3.203 3.203 0 0 0 3.2 3.2h7.04l2.527.842A1.92 1.92 0 0 1 32 12.024zM10.24 19.6a2.56 2.56 0 1 0-5.12 0 2.56 2.56 0 0 0 5.12 0zm15.36 0a2.56 2.56 0 1 0-5.12 0 2.56 2.56 0 0 0 5.12 0z"/>
  </symbol>

  <symbol viewBox="0 0 30 26" id="ic-megaphone">
    <path fill="currentColor" fill-rule="evenodd" d="M29.72 1.48v21.76a.64.64 0 0 1-1.28 0v-.806l-5.12-.668V2.955l5.12-.669V1.48a.64.64 0 0 1 1.28 0zM1.952 5.742l20.088-2.62v18.476l-6.4-.835v3.757a.64.64 0 0 1-.766.627l-6.4-1.28a.64.64 0 0 1-.514-.627v-3.478l-6.008-.784A1.92 1.92 0 0 1 .28 17.074V7.646a1.92 1.92 0 0 1 1.672-1.904zM9.24 22.715l5.12 1.024v-3.142l-5.12-.668v2.786z"/>
  </symbol>

  <symbol viewBox="0 0 15 15" id="ic-paperclip">
    <path fill="currentColor" d="M2.58853944,12.8668212 C1.01836257,11.3559162 1.01836257,8.91063561 2.58853944,7.39973055 L8.01184768,2.18114402 C9.15332494,1.08275581 11.0024148,1.08275581 12.1438921,2.18114402 C13.2853693,3.27953223 13.2853693,5.05882174 12.1438921,6.15720995 L7.75359491,10.38178 C7.04081725,11.0676514 5.88384483,11.0676514 5.17106717,10.38178 C4.45828952,9.69590863 4.45828952,8.58261017 5.17106717,7.8967388 L8.52835323,4.66618523 C8.81361136,4.39169515 9.27610618,4.39169515 9.56136432,4.66618523 C9.84662246,4.9406753 9.84662246,5.38571164 9.56136432,5.66020171 L6.15759277,8.93548602 C5.87351471,9.20884055 6.39002026,9.70584879 6.67409831,9.43249426 L11.110881,5.16319347 C11.6790371,4.6164844 11.6790371,3.72186957 11.110881,3.1751605 C10.5427249,2.62845144 9.61301488,2.62845144 9.04485877,3.1751605 L3.62155053,8.39374704 C2.62469482,9.35297294 2.62469482,10.9135788 3.62155053,11.8728047 C4.61840624,12.8320306 6.24023365,12.8320306 7.23708936,11.8728047 L11.6273865,7.64823467 C11.9126446,7.3737446 12.3751395,7.3737446 12.6603976,7.64823467 C12.9456557,7.92272475 12.9456557,8.36776109 12.6603976,8.64225116 L8.27010045,12.8668212 C6.69992359,14.3777263 4.1587163,14.3777263 2.58853944,12.8668212 Z"></path>
  </symbol>

  <symbol viewBox="0 0 25 25" id="ic-draft">
    <g stroke="none" stroke-width="1" fill="currentColor" fill-rule="evenodd">
      <g transform="translate(-1.000000, 0.000000)" fill="currentColor" fill-rule="nonzero">
        <path d="M22.5000035,2 L9.00000347,2 L9.00000347,12.499 C9.00097183,13.0405761 8.70960314,13.540521 8.23791375,13.8066314 C7.76622437,14.0727419 7.18764257,14.0635922 6.72460347,13.7827 L4.50000347,12.2222 L4.00000347,12.5736 L4.00000347,23.5 C4.00000347,24.3284271 4.67157635,25 5.50000347,25 L22.5000035,25 C23.3284306,25 24.0000035,24.3284271 24.0000035,23.5 L24.0000035,3.5 C24.0000035,2.67157288 23.3284306,2 22.5000035,2 Z M11.5000035,7 L18.5000035,7 C18.7761458,7 19.0000035,7.22385763 19.0000035,7.5 C19.0000035,7.77614237 18.7761458,8 18.5000035,8 L11.5000035,8 C11.2238611,8 11.0000035,7.77614237 11.0000035,7.5 C11.0000035,7.22385763 11.2238611,7 11.5000035,7 Z M11.5000035,11 L18.5000035,11 C18.7761458,11 19.0000035,11.2238576 19.0000035,11.5 C19.0000035,11.7761424 18.7761458,12 18.5000035,12 L11.5000035,12 C11.2238611,12 11.0000035,11.7761424 11.0000035,11.5 C11.0000035,11.2238576 11.2238611,11 11.5000035,11 Z M9.00000347,15.5 C9.00000347,15.2238576 9.2238611,15 9.50000347,15 L18.5000035,15 C18.7761458,15 19.0000035,15.2238576 19.0000035,15.5 C19.0000035,15.7761424 18.7761458,16 18.5000035,16 L9.50000347,16 C9.2238611,16 9.00000347,15.7761424 9.00000347,15.5 Z M20.5000035,22 L17.5000035,22 C17.2238611,22 17.0000035,21.7761424 17.0000035,21.5 C17.0000035,21.2238576 17.2238611,21 17.5000035,21 L20.5000035,21 C20.7761458,21 21.0000035,21.2238576 21.0000035,21.5 C21.0000035,21.7761424 20.7761458,22 20.5000035,22 Z M4.5,11 L1.75730347,12.928 C1.6029231,13.0214012 1.41014597,13.0241851 1.25313288,12.9352808 C1.09611979,12.8463766 0.99933199,12.6796346 1,12.4992 L1,1.5 C1,0.671572875 1.67157635,0 2.5,0 L6.5,0 C7.3284306,0 8,0.671572875 8,1.5 L8,12.4992 C8,12.6320459 7.9472621,12.7594569 7.8533165,12.8533837 C7.7593709,12.9473106 7.63194934,13.0000571 7.49910347,13.0000571 C7.40869959,12.9998451 7.32006299,12.9749452 7.24280347,12.928 L4.5,11 Z" id="Shape"></path>
      </g>
    </g>
  </symbol>

  <symbol viewBox="0 0 172 142" id="ic-drop-file">
    <g fill="none" fill-rule="nonzero">
      <path fill="#EDF7FF" d="M170.348 110.755c-.981 9.977-6.656 19.973-8.115 21.139-1.525 1.22-4.1.527-5.928.527H11.402l-.083-.15c-3.597-6.272-7.685-12.358-9.726-19.374-5.682-19.542 12.427-32.76 24.134-45.267 6.701-7.16 7.211-17.47 13.01-25.116C46.68 32.044 60.109 26.591 72.93 25.74c14.734-.98 27.264 4.309 36.216 16.203 7.364 9.785 11.56 24.93 23.133 30.818 4.148 2.11 8.958 2.37 13.453 3.571 14.663 3.92 26.127 19.049 24.616 34.424"/>
      <path fill="#D2EAFD" d="M168.045 132.68h3.374"/>
      <path fill="#7B7E82" d="M168.045 132.253c.563-.217 1.124-.238 1.687-.23a8.522 8.522 0 0 1 1.687.164.504.504 0 0 1 0 .985 8.613 8.613 0 0 1-1.687.165c-.563.007-1.124-.015-1.687-.231a.456.456 0 0 1 0-.853"/>
      <path fill="#D2EAFD" d="M14 132.68h151.565"/>
      <path fill="#7B7E82" d="M14 132.275c6.315-.184 12.63-.214 18.946-.21l18.946-.015 37.89-.03 37.892-.03 18.946-.015c6.315.004 12.63.019 18.945.176a.529.529 0 0 1 0 1.056c-6.315.158-12.63.172-18.945.177l-18.946-.015-37.891-.03-37.891-.03-18.946-.016c-6.315.005-12.63-.025-18.945-.21a.406.406 0 0 1-.395-.416.407.407 0 0 1 .395-.392"/>
      <path fill="#D2EAFD" d="M10.272 132.68h.493"/>
      <path fill="#7B7E82" d="M10.272 132.08c.082-.018.164 0 .246.002.042-.002.082.02.123.03a.399.399 0 0 1 .124.052.62.62 0 0 1 0 1.031.397.397 0 0 1-.124.052c-.04.01-.081.032-.123.03-.082.002-.164.02-.246.002a.614.614 0 0 1 0-1.199"/>
      <path fill="#D2EAFD" d="M4.203 132.68h2.456"/>
      <path fill="#7B7E82" d="M4.203 132.243c.41-.106.818-.145 1.228-.163.41-.026.818-.009 1.228.116a.506.506 0 0 1 0 .967c-.41.124-.818.142-1.228.116a5.916 5.916 0 0 1-1.228-.163.45.45 0 0 1 0-.873"/>
      <path fill="#D2EAFD" d="M72.329 140.712h47.305"/>
      <path fill="#7B7E82" d="M72.329 140.307c1.97-.185 3.942-.21 5.913-.213l5.913-.031 11.826-.06 11.827.001 5.913.001c1.971.009 3.942.02 5.913.179a.53.53 0 0 1 0 1.056c-1.971.159-3.942.17-5.913.178l-5.913.001-11.827.003-11.826-.06-5.913-.032c-1.97-.004-3.942-.027-5.913-.214a.406.406 0 0 1 0-.809"/>
      <path fill="#D2EAFD" d="M52.865 140.712h12.122"/>
      <path fill="#7B7E82" d="M52.865 140.276c2.02-.106 4.041-.145 6.061-.163 2.021-.02 4.041-.012 6.061.115a.485.485 0 0 1 0 .968c-2.02.127-4.04.135-6.06.116-2.02-.019-4.041-.058-6.062-.164a.437.437 0 0 1 0-.872"/>
      <path fill="#D2EAFD" d="M25.183 2.068c0 .996-.81 1.804-1.811 1.804-1 0-1.81-.808-1.81-1.804 0-.997.81-1.804 1.81-1.804s1.81.807 1.81 1.804M138.597 50.21c0 1.916-1.56 3.47-3.483 3.47a3.476 3.476 0 0 1-3.483-3.47c0-1.917 1.56-3.47 3.483-3.47a3.476 3.476 0 0 1 3.483 3.47M96.145 12.593a4.085 4.085 0 0 1-4.093 4.076 4.084 4.084 0 0 1-4.092-4.076 4.085 4.085 0 0 1 4.092-4.078 4.085 4.085 0 0 1 4.093 4.078M156.7 61.224A2.78 2.78 0 0 1 153.912 64a2.78 2.78 0 0 1-2.786-2.776 2.78 2.78 0 0 1 2.786-2.776 2.78 2.78 0 0 1 2.786 2.776M154.185 21.368c0 1.303-1.06 2.36-2.368 2.36a2.364 2.364 0 0 1-2.369-2.36c0-1.304 1.06-2.36 2.369-2.36a2.364 2.364 0 0 1 2.368 2.36M118.58 8.012c0 1.303-1.06 2.36-2.368 2.36a2.364 2.364 0 0 1-2.368-2.36c0-1.303 1.06-2.36 2.368-2.36a2.364 2.364 0 0 1 2.369 2.36M16.505 58.364c1.279.933 2.802 1.217 4.136.67a4.109 4.109 0 0 0 1.581-1.182c1.27-1.507 1.694-3.837 1.065-5.848-.677-2.164-2.648-4.155-4.657-3.735-1.802.377-4.099 2.913-4.54 5.061-.402 1.958 1.122 4.091 2.415 5.034"/>
      <g>
        <path fill="#1C97F5" d="M131.728 97.479c0 1.316-.112 2.613-.337 3.867-5.706-8.101-13.857-14.45-23.112-17.993-28.147-.368-56.356 6.636-81.053 20.145-.012.006-.031.019-.043.024a17.458 17.458 0 0 1-2.27-8.644c0-9.735 7.895-17.624 17.625-17.624.928 0 1.839.068 2.725.212 2.675-12.723 13.957-22.272 27.473-22.272a27.91 27.91 0 0 1 16.552 5.408 22.2 22.2 0 0 1 9.305-2.034c11.444 0 20.874 8.6 22.184 19.69 6.555 3.898 10.95 11.045 10.95 19.22" opacity=".2"/>
        <path fill="#FFF" d="M35.864 113.543l89.76-.863c.039-.67 1.95-2.562 1.99-3.232 2.75-6.828 3.676-4.955 3.995-9.778.32-4.822-1.875-9.743-5.677-12.726-2.271-1.783-5.075-2.922-6.964-5.107-3.578-4.14-3.073-11.08-7.427-14.393-1.865-1.42-11.115-5.652-13.398-5.117-9.501 2.225-12.754 3.338-12.966-.518-.14-2.571-5.084-.87-7.656-.992-6.931-.331-13.736.15-19.43 4.119-5.692 3.969-10.24 11.404-12.325 18.023-6.416-1.29-13.467 1.472-17.302 6.774-3.835 5.303-3.852 10.016-.62 15.706 1.876 3.3 4.863 6.312 8.02 8.104"/>
        <path fill="#7B7E82" d="M85.876 65.833c2.715-2.749 6.58-4.13 10.392-4.568 3.843-.42 7.82.25 11.325 1.948a20.958 20.958 0 0 1 8.565 7.726c2.07 3.31 3.138 7.234 3.115 11.115v.001l-1.039-1.233c1.395.257 2.778.623 4.08 1.207 1.28.612 2.524 1.324 3.617 2.236 1.09.905 2.117 1.903 2.945 3.058.832 1.143 1.598 2.361 2.056 3.707.883 2.688 1.25 5.518.9 8.28-.355 2.76-1.437 5.394-3.034 7.634a.762.762 0 0 1-1.06.178.763.763 0 0 1-.183-1.054 14.279 14.279 0 0 0 2.48-6.955 14.527 14.527 0 0 0-.164-3.692c-.065-.613-.266-1.2-.428-1.789-.239-.568-.434-1.146-.736-1.677-.998-2.203-2.469-4.202-4.372-5.696-1.896-1.5-4.153-2.498-6.522-2.972l-.036-.008a1.25 1.25 0 0 1-1.004-1.224 18.568 18.568 0 0 0-2.762-9.786 18.48 18.48 0 0 0-7.493-6.886 18.595 18.595 0 0 0-10.035-1.933c-1.726.141-3.427.55-5.049 1.165-1.624.622-3.167 1.418-4.734 2.283l-.012.007a.678.678 0 0 1-.812-1.072M81.94 69.718c-.14-.341-.113-.568-.041-.759.095-.181.212-.291.347-.447.262-.301.604-.595.974-.809a1.124 1.124 0 1 1 1.534 1.534l-.04.067a8.357 8.357 0 0 1-.513.801c-.095.128-.21.301-.336.411-.153.098-.352.159-.714.107l-.064-.009a1.463 1.463 0 0 1-1.146-.896"/>
        <path fill="#7B7E82" d="M47.198 89.541a32.247 32.247 0 0 1-.845-3.813 29.673 29.673 0 0 1-.255-1.953 17.8 17.8 0 0 1-.065-1.005c-.004-.156-.011-.396.009-.547l.062-.49c.319-2.616 1.06-5.176 2.135-7.582 2.167-4.809 5.798-8.938 10.283-11.72 4.484-2.79 9.817-4.189 15.093-3.985 5.279.183 10.51 1.96 14.796 5.084a1.251 1.251 0 0 1-1.465 2.027l-.015-.012a24.303 24.303 0 0 0-13.408-4.77c-4.826-.204-9.693 1.05-13.808 3.585a24.672 24.672 0 0 0-9.466 10.703c-.993 2.203-1.686 4.547-1.987 6.948-.196 1.094-.277 2.345-.26 3.567.028 1.226.148 2.455.41 3.654v.006a.626.626 0 0 1-1.214.303"/>
        <path fill="#7B7E82" d="M34.544 113.586c-3.87-1.77-7.074-5.052-8.71-9.058-.845-1.99-1.267-4.154-1.335-6.32a17.822 17.822 0 0 1 1.1-6.403c1.504-4.103 4.602-7.605 8.526-9.614 3.914-2.036 8.615-2.522 12.894-1.32l.01.002a1.25 1.25 0 1 1-.698 2.401c-3.662-1.102-7.745-.752-11.204.922-3.474 1.663-6.302 4.68-7.737 8.296-1.455 3.606-1.513 7.784-.134 11.474 1.36 3.706 4.191 6.845 7.73 8.712a.504.504 0 0 1-.442.908"/>
        <path fill="#8DCBFA" d="M90.937 94.552h-4.643a1.22 1.22 0 0 0-1.22 1.219v17.25c0 .938-.76 1.698-1.698 1.698h-6.543c-.938 0-1.698-.76-1.698-1.698V95.77a1.22 1.22 0 0 0-1.22-1.22h-4.641c-1.22 0-1.895-1.41-1.131-2.36l10.082-12.534a2.416 2.416 0 0 1 3.764 0l10.079 12.534c.764.95.088 2.36-1.131 2.36"/>
        <path stroke="#7B7E82" stroke-linecap="round" stroke-linejoin="round" stroke-width="2.5" d="M75.135 106.904v-.262M75.135 101.805V95.77a1.22 1.22 0 0 0-1.22-1.22h-4.64c-1.22 0-1.896-1.41-1.132-2.36l10.082-12.533a2.415 2.415 0 0 1 3.764 0L92.07 92.19c.762.95.087 2.36-1.132 2.36h-4.643a1.22 1.22 0 0 0-1.22 1.22v17.25c0 .938-.759 1.698-1.698 1.698h-6.543c-.938 0-1.698-.76-1.698-1.698v-2.582"/>
      </g>
    </g>
  </symbol>

    <symbol viewBox="0 0 65 80" id="ic-document-colour">
    <defs>
        <path id="a" d="M0 .334h64.322v78.89H0z"/>
    </defs>
    <g fill="none" fill-rule="evenodd">
        <path fill="#FFF" fill-rule="nonzero" d="M62.875 18.537l.058 57.183c0 1.772-1.387 3.212-3.092 3.212H3.615c-1.706 0-3.092-1.44-3.092-3.212V5.25c0-1.772 1.386-3.213 3.092-3.213h43.518"/>
        <g fill-rule="nonzero">
            <path fill="#D2EAFD" d="M47.567 2.038l15.74 16.253"/>
            <path stroke="#7B7E82" stroke-linecap="round" stroke-linejoin="round" stroke-width="1.912" d="M47.567 2.038l15.74 16.253"/>
        </g>
        <g>
            <mask id="b" fill="#fff">
                <use xlink:href="#a"/>
            </mask>
            <path fill="#7B7E82" fill-rule="nonzero" d="M64.263 17.835l.03 29.67.015 14.835.008 7.417.004 3.709v.927c-.002.321.012.574-.018 1.02a4.312 4.312 0 0 1-.863 2.22 4.068 4.068 0 0 1-1.887 1.373 3.86 3.86 0 0 1-1.146.212c-.36.011-.612.003-.923.006H4.154c-.71.018-1.55-.182-2.197-.61a4.114 4.114 0 0 1-1.55-1.767 4.07 4.07 0 0 1-.35-1.155 4.196 4.196 0 0 1-.054-.603L0 74.61V4.607c.004-.165.008-.394.034-.586C.213 2.397 1.383.971 2.891.52A4.181 4.181 0 0 1 4.043.343H6.72l3.57-.002c4.76.006 9.52-.032 14.279.022l7.139.053c2.38.015 4.76.087 7.14.352.301.034.52.315.487.629a.562.562 0 0 1-.488.507c-2.38.265-4.76.337-7.139.353l-7.14.052c-4.759.052-9.518.017-14.278.021l-3.57-.001H4.045c-.206.008-.41.032-.607.094-.79.235-1.418.997-1.507 1.846-.015.114-.013.195-.02.338V74.61l.004.447c.005.107.007.214.028.32.03.21.092.415.184.605.174.384.467.717.82.934.363.228.73.329 1.207.322h55.33c.282-.001.625.005.86-.004.207.001.409-.05.604-.11.388-.135.738-.392.996-.726.258-.336.414-.745.455-1.17.014-.17.01-.536.01-.833v-.927l-.005-3.708-.007-7.418-.015-14.835-.03-29.67c0-.548.427-.992.955-.993.527-.001.956.444.956.992" mask="url(#b)"/>
        </g>
        <path fill="#7B7E82" fill-rule="nonzero" d="M48.515 2.038l.007 16.253-.956-.993c1.413.034 2.826.106 4.238.166.707.034 1.413.053 2.12.112.706.04 1.412.13 2.118.15.3.01.536.27.527.581a.555.555 0 0 1-.527.547c-.706.022-1.412.111-2.119.152-.706.058-1.412.077-2.119.11-1.412.06-2.825.132-4.238.168-.515.012-.942-.411-.955-.946v-.047l.007-16.253c0-.545.425-.986.95-.986.523 0 .947.44.947.986"/>
        <path fill="#D2EAFD" fill-rule="nonzero" d="M14.531 35.102h34.935"/>
        <path fill="#60B6F8" fill-rule="nonzero" d="M14.531 34.47c2.911-.32 5.823-.371 8.734-.354l8.734.075c2.91.011 5.822.1 8.733.146 2.912.056 5.823.147 8.734.255.272.01.484.247.475.529a.504.504 0 0 1-.475.492c-2.911.11-5.822.199-8.734.255-2.91.046-5.822.135-8.733.146l-8.734.076c-2.911.017-5.823-.033-8.734-.356a.63.63 0 0 1-.543-.699.624.624 0 0 1 .543-.564"/>
        <path fill="#D2EAFD" fill-rule="nonzero" d="M28.405 44.119h21.061"/>
        <path fill="#60B6F8" fill-rule="nonzero" d="M28.405 43.595c3.51-.582 7.02-.47 10.53-.431 3.51.056 7.021.197 10.531.484.251.02.438.248.418.508a.464.464 0 0 1-.418.434c-3.51.287-7.02.427-10.53.485-3.51.038-7.021.15-10.531-.433a.528.528 0 0 1-.424-.607.522.522 0 0 1 .424-.44"/>
        <path fill="#D2EAFD" fill-rule="nonzero" d="M14.531 44.119h8.863"/>
        <path fill="#60B6F8" fill-rule="nonzero" d="M14.531 43.522c1.478-.467 2.954-.4 4.432-.376 1.477.044 2.954.138 4.431.376.318.051.535.36.486.69a.594.594 0 0 1-.486.504c-1.477.238-2.954.332-4.431.375-1.478.026-2.954.092-4.432-.375a.628.628 0 0 1-.399-.779.618.618 0 0 1 .4-.415"/>
        <path fill="#D2EAFD" fill-rule="nonzero" d="M45.391 53.135h4.075"/>
        <path fill="#60B6F8" fill-rule="nonzero" d="M45.391 52.73c.68-.35 1.358-.483 2.038-.556.339-.033.679-.055 1.019-.004.339.054.679.131 1.018.346a.742.742 0 0 1 0 1.239c-.34.214-.68.292-1.018.346-.34.05-.68.029-1.019-.004-.68-.074-1.359-.207-2.038-.556a.46.46 0 0 1 0-.811"/>
        <path fill="#D2EAFD" fill-rule="nonzero" d="M14.531 53.135h25.067"/>
        <path fill="#60B6F8" fill-rule="nonzero" d="M14.531 52.677a284.62 284.62 0 0 1 6.267-.259c2.09-.053 4.178-.135 6.267-.163l6.266-.095c2.089-.039 4.178-.03 6.267.303a.677.677 0 0 1 .549.775.671.671 0 0 1-.55.57c-2.088.331-4.177.342-6.266.303l-6.266-.096c-2.09-.028-4.178-.11-6.267-.163a289.61 289.61 0 0 1-6.267-.258.453.453 0 0 1-.419-.482.452.452 0 0 1 .42-.435"/>
        <path fill="#D2EAFD" fill-rule="nonzero" d="M14.531 25.752h25.067"/>
        <path fill="#60B6F8" fill-rule="nonzero" d="M14.531 25.294a284.62 284.62 0 0 1 6.267-.258c2.09-.054 4.178-.136 6.267-.164l6.266-.095c2.089-.039 4.178-.03 6.267.302a.679.679 0 0 1 .549.776.672.672 0 0 1-.55.57c-2.088.331-4.177.342-6.266.303l-6.266-.095c-2.09-.03-4.178-.11-6.267-.164-2.09-.064-4.178-.15-6.267-.258a.452.452 0 0 1-.419-.482.452.452 0 0 1 .42-.435"/>
        <path fill="#D2EAFD" fill-rule="nonzero" d="M43.774 25.752h4.938"/>
        <path fill="#60B6F8" fill-rule="nonzero" d="M43.774 25.294a16.24 16.24 0 0 1 2.47-.426c.41-.045.822-.073 1.233-.095.412-.036.824-.023 1.235.306a.873.873 0 0 1 0 1.346c-.411.33-.823.343-1.235.307-.411-.022-.823-.051-1.234-.096a16.339 16.339 0 0 1-2.47-.425.473.473 0 0 1-.331-.572.465.465 0 0 1 .332-.345"/>
        <path fill="#D2EAFD" fill-rule="nonzero" d="M14.531 62.151h22.283"/>
        <path fill="#60B6F8" fill-rule="nonzero" d="M14.531 61.729c1.857-.143 3.714-.261 5.571-.326 1.857-.08 3.714-.151 5.57-.186 3.714-.047 7.428-.204 11.142.357a.58.58 0 0 1 .475.662.574.574 0 0 1-.475.493c-3.714.561-7.428.405-11.142.356a224.813 224.813 0 0 1-5.57-.185 132.14 132.14 0 0 1-5.57-.326.419.419 0 0 1-.377-.454.417.417 0 0 1 .376-.391"/>
    </g>
  </symbol>

  <symbol id="ic-document-success" viewBox="0 0 65 80">
    <g fill="none" fill-rule="nonzero">
        <path fill="#FFF" d="M55.12.98l5.512-.01a2.98 2.98 0 0 1 2.993 2.965l.12 71.954a2.977 2.977 0 0 1-2.98 2.975l-56.55.098a2.979 2.979 0 0 1-2.993-2.964L1.1 4.043A2.98 2.98 0 0 1 4.083 1.07l36.694-.064"/>
        <path fill="#FFF" d="M61.945 78.62a2.976 2.976 0 0 1-1.18.244l-56.55.098a2.979 2.979 0 0 1-2.994-2.965L1.1 4.044a2.98 2.98 0 0 1 2.983-2.975l36.694-.064"/>
        <path fill="#7B7E82" d="M62.121 79.025c-.42.32-1.027.49-1.518.528-.459.057-.918.094-1.377.117-.917.041-1.835.03-2.753.037l-5.507.021-11.014.044-22.028.087-11.014.043-2.772.008a3.953 3.953 0 0 1-3.116-1.603 3.822 3.822 0 0 1-.706-1.652c-.057-.277-.062-.648-.062-.84l-.003-.685-.01-2.737-.085-21.898L.111 6.7l.002-2.764A3.947 3.947 0 0 1 1.769.83a3.909 3.909 0 0 1 1.68-.69C4.119.05 4.51.1 4.979.085L7.733.083 18.747.07 29.76.06c3.672.055 7.342-.213 11.015.415a.539.539 0 0 1 .002 1.063c-3.67.64-7.342.386-11.013.453l-11.015.026-11.014.026-2.753.007c-.447.006-.979-.014-1.218.031a1.923 1.923 0 0 0-.84.347 1.97 1.97 0 0 0-.83 1.56l.003 2.71L2.2 50.49 2.19 72.39l-.001 2.737c.005.451-.018.963.03 1.206.047.304.17.596.357.844.364.509.97.821 1.595.832l2.736.005 11.014.004 22.028.01 11.014.006 5.507.003c.918.003 1.836-.011 2.754.027.459.021.917.056 1.377.112.426.068.746.088 1.168.04l.023-.002a.457.457 0 0 1 .506.4.455.455 0 0 1-.177.411"/>
        <path fill="#FFF" d="M55.12.98l5.512-.01a2.98 2.98 0 0 1 2.993 2.965l.12 68.187"/>
        <path fill="#7B7E82" d="M55.12.595c.82-.368 1.64-.344 2.461-.362L60.043.18h.623a3.783 3.783 0 0 1 2.19.712A3.755 3.755 0 0 1 64.39 3.49l.074 9.883.158 19.582.04 9.79c.005 3.265.016 6.529-.016 9.792a626.02 626.02 0 0 1-.162 9.792l-.108 4.896c-.045 1.632-.044 3.263-.165 4.895a.467.467 0 0 1-.501.431.468.468 0 0 1-.434-.429c-.126-1.632-.131-3.263-.181-4.895l-.126-4.895a607.723 607.723 0 0 1-.195-9.792c-.044-3.263-.045-6.526-.052-9.79l.005-9.792.09-19.582.023-4.896V6.032l-.006-1.224c-.006-.383.008-.882-.023-1.13a2.182 2.182 0 0 0-.896-1.497 2.186 2.186 0 0 0-.814-.367 2.49 2.49 0 0 0-.448-.05l-.608-.001-2.462-.045c-.821-.014-1.642.012-2.463-.353-.215-.095-.31-.345-.215-.558a.417.417 0 0 1 .213-.212"/>
        <path fill="#FFF" d="M44.923.998h.313"/>
        <path fill="#7B7E82" d="M44.921.121l.314-.085a.996.996 0 1 1 .529 1.922c-.178.048-.36.045-.526 0l-.314-.084a.908.908 0 0 1-.003-1.753"/>
        <path fill="#00A356" fill-opacity=".6" d="M16.863 18.972l2.428 1.897-1.368.007 4.824-4.344a.617.617 0 0 1 .869.044.61.61 0 0 1 .003.816l-4.321 4.837-.036.04a.875.875 0 0 1-1.332-.033l-1.932-2.395a.612.612 0 0 1 .096-.865.622.622 0 0 1 .77-.004"/>
        <path fill="#7B7E82" d="M26.181 21.36c-.106 1.527-.772 3.15-2.018 4.229-1.262 1.04-2.86 1.697-4.504 1.76-1.639.098-3.298-.38-4.655-1.3-1.353-.92-2.407-2.284-2.916-3.843a7.424 7.424 0 0 1 .053-4.814c.53-1.554 1.615-2.894 2.992-3.771a7.593 7.593 0 0 1 4.66-1.15c1.602.097 3.238.876 4.023 2.266a.293.293 0 0 1-.113.402.292.292 0 0 1-.243.022l-.016-.005c-1.377-.479-2.508-.879-3.772-.97-1.245-.056-2.5.285-3.511.98-1.003.706-1.803 1.705-2.192 2.858-.413 1.146-.4 2.427-.028 3.579.367 1.156 1.146 2.178 2.15 2.873a5.561 5.561 0 0 0 3.47.972 5.516 5.516 0 0 0 3.348-1.325c.956-.75 1.838-1.706 2.338-2.964l.004-.008a.483.483 0 0 1 .93.21"/>
        <path fill="#FFF" d="M31.711 16.935l12.653-.062"/>
        <path fill="#7B7E82" d="M31.708 16.421c1.052-.422 2.107-.465 3.161-.462 1.054-.005 2.11-.006 3.164.015a96.68 96.68 0 0 1 3.164.096c1.055.052 2.109.116 3.164.215.327.031.567.32.536.644a.595.595 0 0 1-.53.533 72.802 72.802 0 0 1-3.163.246c-1.054.061-2.108.1-3.162.126-1.055.032-2.11.042-3.163.046-1.055.013-2.11-.02-3.166-.432a.552.552 0 0 1-.005-1.027"/>
        <path fill="#FFF" d="M31.734 21.68l16.341-.08"/>
        <path fill="#7B7E82" d="M31.731 21.075c1.36-.335 2.722-.374 4.083-.376 1.362-.01 2.724-.016 4.086-.005 1.361.004 2.724.045 4.086.065 1.363.028 2.724.079 4.086.15.385.02.68.346.66.728a.696.696 0 0 1-.653.656c-1.362.084-2.723.148-4.085.19-1.362.033-2.723.087-4.085.103-1.36.025-2.723.033-4.085.036-1.362.01-2.723-.015-4.087-.337a.623.623 0 0 1-.006-1.21"/>
        <path fill="#FFF" d="M46.948 16.861l5.843-.029"/>
        <path fill="#7B7E82" d="M46.944 16.113c.487-.192.974-.22 1.46-.222l1.46-.012c.975.005 1.948.025 2.923.097a.86.86 0 0 1 .798.92.862.862 0 0 1-.79.794c-.973.08-1.947.11-2.92.124l-1.461.003c-.487.003-.974-.021-1.462-.208a.801.801 0 0 1-.008-1.496"/>
        <path fill="#00A356" fill-opacity=".6" d="M16.964 39.708l2.429 1.896-1.368.007 4.824-4.343a.618.618 0 0 1 .868.043.612.612 0 0 1 .004.817l-4.322 4.836-.035.041a.877.877 0 0 1-1.332-.034L16.1 40.576a.61.61 0 0 1 .096-.864.62.62 0 0 1 .768-.004"/>
        <path fill="#7B7E82" d="M26.283 42.096c-.106 1.527-.772 3.15-2.018 4.228-1.263 1.042-2.86 1.698-4.504 1.762-1.64.097-3.299-.38-4.655-1.3-1.354-.92-2.407-2.285-2.917-3.844a7.436 7.436 0 0 1 .054-4.814c.53-1.554 1.615-2.894 2.992-3.772a7.586 7.586 0 0 1 4.658-1.148c1.604.096 3.24.874 4.025 2.264a.295.295 0 0 1-.356.425l-.016-.006c-1.377-.478-2.509-.878-3.772-.969-1.246-.056-2.5.285-3.511.98-1.003.706-1.803 1.705-2.192 2.858-.413 1.146-.4 2.426-.028 3.578.366 1.157 1.145 2.179 2.15 2.873a5.555 5.555 0 0 0 3.47.973 5.51 5.51 0 0 0 3.347-1.326c.957-.75 1.838-1.705 2.34-2.964l.003-.007a.483.483 0 0 1 .93.209"/>
        <path fill="#FFF" d="M31.813 37.671l12.653-.062"/>
        <path fill="#7B7E82" d="M31.81 37.157c1.052-.422 2.107-.465 3.16-.462 1.055-.006 2.11-.006 3.165.014 1.054.016 2.108.046 3.163.096 1.055.053 2.11.117 3.165.216a.592.592 0 0 1 .005 1.177 71.61 71.61 0 0 1-3.162.245c-1.054.062-2.108.1-3.162.128-1.055.03-2.11.04-3.163.044-1.055.014-2.11-.019-3.166-.431a.552.552 0 0 1-.005-1.027"/>
        <path fill="#FFF" d="M31.835 42.416l16.342-.08"/>
        <path fill="#7B7E82" d="M31.832 41.811c1.36-.336 2.723-.374 4.084-.377 1.362-.01 2.724-.015 4.086-.003 1.361.003 2.724.043 4.086.063 1.362.029 2.724.079 4.086.15.385.02.68.346.66.729a.696.696 0 0 1-.653.656c-1.361.084-2.723.148-4.085.19-1.361.032-2.723.086-4.085.103a267.76 267.76 0 0 1-4.085.036c-1.362.01-2.723-.015-4.087-.338a.621.621 0 0 1-.007-1.209"/>
        <path fill="#FFF" d="M47.05 37.597l5.843-.029"/>
        <path fill="#7B7E82" d="M47.046 36.849c.486-.192.973-.22 1.46-.222l1.46-.013c.974.006 1.948.026 2.923.097a.862.862 0 0 1 .798.922.861.861 0 0 1-.79.792c-.973.082-1.947.11-2.921.125l-1.461.002c-.486.004-.973-.02-1.461-.208a.802.802 0 0 1-.008-1.495"/>
        <path fill="#00A356" fill-opacity=".6" d="M17.067 60.444l2.428 1.896-1.368.007 4.824-4.343a.618.618 0 0 1 .869.042.612.612 0 0 1 .003.817L19.5 63.7l-.035.04a.876.876 0 0 1-1.332-.033l-1.932-2.395a.611.611 0 0 1 .095-.864.622.622 0 0 1 .77-.004"/>
        <path fill="#7B7E82" d="M26.385 62.832c-.106 1.527-.773 3.149-2.018 4.228-1.263 1.041-2.86 1.698-4.504 1.762-1.64.097-3.299-.381-4.655-1.301-1.354-.92-2.407-2.285-2.917-3.844a7.434 7.434 0 0 1 .054-4.814c.53-1.553 1.615-2.893 2.992-3.771a7.59 7.59 0 0 1 4.658-1.149c1.604.096 3.24.875 4.025 2.265a.296.296 0 0 1-.357.425l-.014-.006c-1.379-.478-2.51-.878-3.773-.97-1.246-.056-2.5.286-3.512.982-1.002.704-1.802 1.704-2.19 2.857-.414 1.146-.402 2.427-.029 3.578.366 1.157 1.145 2.179 2.15 2.873a5.555 5.555 0 0 0 3.47.973 5.516 5.516 0 0 0 3.347-1.326c.957-.75 1.838-1.705 2.339-2.964l.004-.007a.482.482 0 0 1 .93.209"/>
        <path fill="#FFF" d="M31.914 58.406l12.654-.061"/>
        <path fill="#7B7E82" d="M31.912 57.893c1.052-.422 2.107-.465 3.16-.462 1.055-.006 2.11-.006 3.164.014 1.055.016 2.11.046 3.164.096a71.74 71.74 0 0 1 3.165.216c.326.03.566.318.535.644a.593.593 0 0 1-.53.532c-1.054.11-2.107.183-3.162.246-1.054.062-2.108.1-3.163.127-1.054.03-2.108.042-3.162.045-1.056.014-2.11-.02-3.166-.431a.551.551 0 0 1-.005-1.027"/>
        <path fill="#FFF" d="M31.937 63.151l16.342-.079"/>
        <path fill="#7B7E82" d="M31.934 62.547c1.36-.336 2.723-.375 4.084-.378 1.362-.009 2.724-.014 4.086-.003 1.361.003 2.723.044 4.086.064 1.362.029 2.724.08 4.086.15.384.02.68.346.66.729a.697.697 0 0 1-.653.656c-1.362.084-2.723.147-4.085.189-1.361.033-2.723.088-4.085.104-1.361.024-2.723.032-4.085.035-1.362.011-2.724-.014-4.087-.337a.623.623 0 0 1-.007-1.209"/>
        <path fill="#FFF" d="M47.152 58.332l5.843-.028"/>
        <path fill="#7B7E82" d="M47.148 57.584c.486-.192.973-.22 1.46-.221l1.46-.013c.974.006 1.948.026 2.923.097a.861.861 0 0 1 .798.921.863.863 0 0 1-.79.793c-.973.081-1.947.11-2.921.125l-1.46.002c-.487.003-.974-.02-1.462-.208a.802.802 0 0 1-.008-1.496"/>
    </g>
  </symbol>
  
  <symbol id="ic-document-error" viewBox="0 0 65 80">
    <g fill="none" fill-rule="evenodd">
        <path fill="#FFF" fill-rule="nonzero" d="M55.12.98l5.512-.01a2.98 2.98 0 0 1 2.993 2.965l.12 71.954a2.977 2.977 0 0 1-2.98 2.975l-56.55.098a2.979 2.979 0 0 1-2.993-2.964L1.1 4.043A2.98 2.98 0 0 1 4.083 1.07l36.694-.064"/>
        <path fill="#FFF" fill-rule="nonzero" d="M61.945 78.62a2.976 2.976 0 0 1-1.18.244l-56.55.098a2.979 2.979 0 0 1-2.994-2.965L1.1 4.044a2.98 2.98 0 0 1 2.983-2.975l36.694-.064"/>
        <path fill="#7B7E82" fill-rule="nonzero" d="M62.121 79.025c-.42.32-1.027.49-1.518.528-.459.057-.918.094-1.377.117-.917.041-1.835.03-2.753.037l-5.507.021-11.014.044-22.028.087-11.014.043-2.772.008a3.953 3.953 0 0 1-3.116-1.603 3.822 3.822 0 0 1-.706-1.652c-.057-.277-.062-.648-.062-.84l-.003-.685-.01-2.737-.085-21.898L.111 6.7l.002-2.764A3.947 3.947 0 0 1 1.769.83a3.909 3.909 0 0 1 1.68-.69C4.119.05 4.51.1 4.979.085L7.733.083 18.747.07 29.76.06c3.672.055 7.342-.213 11.015.415a.539.539 0 0 1 .002 1.063c-3.67.64-7.342.386-11.013.453l-11.015.026-11.014.026-2.753.007c-.447.006-.979-.014-1.218.031a1.923 1.923 0 0 0-.84.347 1.97 1.97 0 0 0-.83 1.56l.003 2.71L2.2 50.49 2.19 72.39l-.001 2.737c.005.451-.018.963.03 1.206.047.304.17.596.357.844.364.509.97.821 1.595.832l2.736.005 11.014.004 22.028.01 11.014.006 5.507.003c.918.003 1.836-.011 2.754.027.459.021.917.056 1.377.112.426.068.746.088 1.168.04l.023-.002a.457.457 0 0 1 .506.4.455.455 0 0 1-.177.411"/>
        <path fill="#FFF" fill-rule="nonzero" d="M55.12.98l5.512-.01a2.98 2.98 0 0 1 2.993 2.965l.12 68.187"/>
        <path fill="#7B7E82" fill-rule="nonzero" d="M55.12.595c.82-.368 1.64-.344 2.461-.362L60.043.18h.623a3.783 3.783 0 0 1 2.19.712A3.755 3.755 0 0 1 64.39 3.49l.074 9.883.158 19.582.04 9.79c.005 3.265.016 6.529-.016 9.792a626.02 626.02 0 0 1-.162 9.792l-.108 4.896c-.045 1.632-.044 3.263-.165 4.895a.467.467 0 0 1-.501.431.468.468 0 0 1-.434-.429c-.126-1.632-.131-3.263-.181-4.895l-.126-4.895a607.723 607.723 0 0 1-.195-9.792c-.044-3.263-.045-6.526-.052-9.79l.005-9.792.09-19.582.023-4.896V6.032l-.006-1.224c-.006-.383.008-.882-.023-1.13a2.182 2.182 0 0 0-.896-1.497 2.186 2.186 0 0 0-.814-.367 2.49 2.49 0 0 0-.448-.05l-.608-.001-2.462-.045c-.821-.014-1.642.012-2.463-.353-.215-.095-.31-.345-.215-.558a.417.417 0 0 1 .213-.212"/>
        <path fill="#FFF" fill-rule="nonzero" d="M44.923.998h.313"/>
        <path fill="#7B7E82" fill-rule="nonzero" d="M44.921.121l.314-.085a.996.996 0 1 1 .529 1.922c-.178.048-.36.045-.526 0l-.314-.084a.908.908 0 0 1-.003-1.753"/>
        <path fill="#E55353" d="M21.48 21.627l-1.618-1.618-1.618 1.618c-.187.188-.481.197-.657.022-.175-.176-.165-.47.022-.656l1.618-1.619-1.618-1.618c-.188-.188-.196-.482-.021-.656.175-.175.469-.166.656.02l1.618 1.62 1.618-1.62c.187-.186.481-.195.657-.02.175.175.166.469-.022.656l-1.618 1.618 1.618 1.619c.187.186.197.48.021.656-.174.174-.469.166-.656-.022zM21.48 42.627l-1.618-1.618-1.618 1.618c-.187.188-.481.197-.657.022-.175-.176-.165-.47.022-.656l1.618-1.619-1.618-1.618c-.188-.188-.196-.482-.021-.656.175-.175.469-.166.656.02l1.618 1.62 1.618-1.62c.187-.186.481-.195.657-.02.175.175.166.469-.022.656l-1.618 1.618 1.618 1.619c.187.186.197.48.021.656-.174.174-.469.166-.656-.022zM21.48 63.627l-1.618-1.618-1.618 1.618c-.187.188-.481.197-.657.022-.175-.176-.165-.47.022-.656l1.618-1.619-1.618-1.618c-.188-.188-.196-.482-.021-.656.175-.175.469-.166.656.02l1.618 1.62 1.618-1.62c.187-.186.481-.195.657-.02.175.175.166.469-.022.656l-1.618 1.618 1.618 1.619c.187.186.197.48.021.656-.174.174-.469.166-.656-.022z"/>
        <path fill="#7B7E82" fill-rule="nonzero" d="M26.181 21.36c-.106 1.527-.772 3.15-2.018 4.229-1.262 1.04-2.86 1.697-4.504 1.76-1.639.098-3.298-.38-4.655-1.3-1.353-.92-2.407-2.284-2.916-3.843a7.424 7.424 0 0 1 .053-4.814c.53-1.554 1.615-2.894 2.992-3.771a7.593 7.593 0 0 1 4.66-1.15c1.602.097 3.238.876 4.023 2.266a.293.293 0 0 1-.113.402.292.292 0 0 1-.243.022l-.016-.005c-1.377-.479-2.508-.879-3.772-.97-1.245-.056-2.5.285-3.511.98-1.003.706-1.803 1.705-2.192 2.858-.413 1.146-.4 2.427-.028 3.579.367 1.156 1.146 2.178 2.15 2.873a5.561 5.561 0 0 0 3.47.972 5.516 5.516 0 0 0 3.348-1.325c.956-.75 1.838-1.706 2.338-2.964l.004-.008a.483.483 0 0 1 .93.21"/>
        <path fill="#FFF" fill-rule="nonzero" d="M31.711 16.935l12.653-.062"/>
        <path fill="#7B7E82" fill-rule="nonzero" d="M31.708 16.421c1.052-.422 2.107-.465 3.161-.462 1.054-.005 2.11-.006 3.164.015a96.68 96.68 0 0 1 3.164.096c1.055.052 2.109.116 3.164.215.327.031.567.32.536.644a.595.595 0 0 1-.53.533 72.802 72.802 0 0 1-3.163.246c-1.054.061-2.108.1-3.162.126-1.055.032-2.11.042-3.163.046-1.055.013-2.11-.02-3.166-.432a.552.552 0 0 1-.005-1.027"/>
        <path fill="#FFF" fill-rule="nonzero" d="M31.734 21.68l16.341-.08"/>
        <path fill="#7B7E82" fill-rule="nonzero" d="M31.731 21.075c1.36-.335 2.722-.374 4.083-.376 1.362-.01 2.724-.016 4.086-.005 1.361.004 2.724.045 4.086.065 1.363.028 2.724.079 4.086.15.385.02.68.346.66.728a.696.696 0 0 1-.653.656c-1.362.084-2.723.148-4.085.19-1.362.033-2.723.087-4.085.103-1.36.025-2.723.033-4.085.036-1.362.01-2.723-.015-4.087-.337a.623.623 0 0 1-.006-1.21"/>
        <path fill="#FFF" fill-rule="nonzero" d="M46.948 16.861l5.843-.029"/>
        <path fill="#7B7E82" fill-rule="nonzero" d="M46.944 16.113c.487-.192.974-.22 1.46-.222l1.46-.012c.975.005 1.948.025 2.923.097a.86.86 0 0 1 .798.92.862.862 0 0 1-.79.794c-.973.08-1.947.11-2.92.124l-1.461.003c-.487.003-.974-.021-1.462-.208a.801.801 0 0 1-.008-1.496M26.283 42.096c-.106 1.527-.772 3.15-2.018 4.228-1.263 1.042-2.86 1.698-4.504 1.762-1.64.097-3.299-.38-4.655-1.3-1.354-.92-2.407-2.285-2.917-3.844a7.436 7.436 0 0 1 .054-4.814c.53-1.554 1.615-2.894 2.992-3.772a7.586 7.586 0 0 1 4.658-1.148c1.604.096 3.24.874 4.025 2.264a.295.295 0 0 1-.356.425l-.016-.006c-1.377-.478-2.509-.878-3.772-.969-1.246-.056-2.5.285-3.511.98-1.003.706-1.803 1.705-2.192 2.858-.413 1.146-.4 2.426-.028 3.578.366 1.157 1.145 2.179 2.15 2.873a5.555 5.555 0 0 0 3.47.973 5.51 5.51 0 0 0 3.347-1.326c.957-.75 1.838-1.705 2.34-2.964l.003-.007a.483.483 0 0 1 .93.209"/>
        <path fill="#FFF" fill-rule="nonzero" d="M31.813 37.671l12.653-.062"/>
        <path fill="#7B7E82" fill-rule="nonzero" d="M31.81 37.157c1.052-.422 2.107-.465 3.16-.462 1.055-.006 2.11-.006 3.165.014 1.054.016 2.108.046 3.163.096 1.055.053 2.11.117 3.165.216a.592.592 0 0 1 .005 1.177 71.61 71.61 0 0 1-3.162.245c-1.054.062-2.108.1-3.162.128-1.055.03-2.11.04-3.163.044-1.055.014-2.11-.019-3.166-.431a.552.552 0 0 1-.005-1.027"/>
        <path fill="#FFF" fill-rule="nonzero" d="M31.835 42.416l16.342-.08"/>
        <path fill="#7B7E82" fill-rule="nonzero" d="M31.832 41.811c1.36-.336 2.723-.374 4.084-.377 1.362-.01 2.724-.015 4.086-.003 1.361.003 2.724.043 4.086.063 1.362.029 2.724.079 4.086.15.385.02.68.346.66.729a.696.696 0 0 1-.653.656c-1.361.084-2.723.148-4.085.19-1.361.032-2.723.086-4.085.103a267.76 267.76 0 0 1-4.085.036c-1.362.01-2.723-.015-4.087-.338a.621.621 0 0 1-.007-1.209"/>
        <path fill="#FFF" fill-rule="nonzero" d="M47.05 37.597l5.843-.029"/>
        <path fill="#7B7E82" fill-rule="nonzero" d="M47.046 36.849c.486-.192.973-.22 1.46-.222l1.46-.013c.974.006 1.948.026 2.923.097a.862.862 0 0 1 .798.922.861.861 0 0 1-.79.792c-.973.082-1.947.11-2.921.125l-1.461.002c-.486.004-.973-.02-1.461-.208a.802.802 0 0 1-.008-1.495M26.385 62.832c-.106 1.527-.773 3.149-2.018 4.228-1.263 1.041-2.86 1.698-4.504 1.762-1.64.097-3.299-.381-4.655-1.301-1.354-.92-2.407-2.285-2.917-3.844a7.434 7.434 0 0 1 .054-4.814c.53-1.553 1.615-2.893 2.992-3.771a7.59 7.59 0 0 1 4.658-1.149c1.604.096 3.24.875 4.025 2.265a.296.296 0 0 1-.357.425l-.014-.006c-1.379-.478-2.51-.878-3.773-.97-1.246-.056-2.5.286-3.512.982-1.002.704-1.802 1.704-2.19 2.857-.414 1.146-.402 2.427-.029 3.578.366 1.157 1.145 2.179 2.15 2.873a5.555 5.555 0 0 0 3.47.973 5.516 5.516 0 0 0 3.347-1.326c.957-.75 1.838-1.705 2.339-2.964l.004-.007a.482.482 0 0 1 .93.209"/>
        <path fill="#FFF" fill-rule="nonzero" d="M31.914 58.406l12.654-.061"/>
        <path fill="#7B7E82" fill-rule="nonzero" d="M31.912 57.893c1.052-.422 2.107-.465 3.16-.462 1.055-.006 2.11-.006 3.164.014 1.055.016 2.11.046 3.164.096a71.74 71.74 0 0 1 3.165.216c.326.03.566.318.535.644a.593.593 0 0 1-.53.532c-1.054.11-2.107.183-3.162.246-1.054.062-2.108.1-3.163.127-1.054.03-2.108.042-3.162.045-1.056.014-2.11-.02-3.166-.431a.551.551 0 0 1-.005-1.027"/>
        <path fill="#FFF" fill-rule="nonzero" d="M31.937 63.151l16.342-.079"/>
        <path fill="#7B7E82" fill-rule="nonzero" d="M31.934 62.547c1.36-.336 2.723-.375 4.084-.378 1.362-.009 2.724-.014 4.086-.003 1.361.003 2.723.044 4.086.064 1.362.029 2.724.08 4.086.15.384.02.68.346.66.729a.697.697 0 0 1-.653.656c-1.362.084-2.723.147-4.085.189-1.361.033-2.723.088-4.085.104-1.361.024-2.723.032-4.085.035-1.362.011-2.724-.014-4.087-.337a.623.623 0 0 1-.007-1.209"/>
        <path fill="#FFF" fill-rule="nonzero" d="M47.152 58.332l5.843-.028"/>
        <path fill="#7B7E82" fill-rule="nonzero" d="M47.148 57.584c.486-.192.973-.22 1.46-.221l1.46-.013c.974.006 1.948.026 2.923.097a.861.861 0 0 1 .798.921.863.863 0 0 1-.79.793c-.973.081-1.947.11-2.921.125l-1.46.002c-.487.003-.974-.02-1.462-.208a.802.802 0 0 1-.008-1.496"/>
    </g>
  </symbol>
</svg>
